{"glyphs":{"0":{"ha":350,"x_min":17,"x_max":333,"o":"m 161 -8 q 108 0 133 -8 q 62 26 82 8 q 29 73 42 44 q 17 140 17 101 l 17 831 q 29 898 17 869 q 62 944 42 926 q 108 971 82 963 q 161 979 133 979 l 189 979 q 242 971 215 979 q 288 944 268 963 q 321 898 308 926 q 333 831 333 869 l 333 140 q 321 73 333 101 q 288 26 308 44 q 242 0 268 8 q 189 -8 215 -8 l 161 -8 m 174 864 q 154 810 154 864 l 154 161 q 158 119 154 132 q 174 107 163 107 l 176 107 q 192 119 188 107 q 196 161 196 132 l 196 810 q 176 864 196 864 l 174 864 z "},"1":{"ha":265,"x_min":14,"x_max":246,"o":"m 108 0 l 108 763 q 61 760 89 761 q 14 758 33 758 l 14 867 q 56 874 35 867 q 93 896 76 882 q 121 929 110 910 q 132 971 132 949 l 246 971 l 246 0 l 108 0 z "},"2":{"ha":350,"x_min":17,"x_max":333,"o":"m 17 581 l 17 831 q 29 898 17 869 q 62 944 42 926 q 108 971 82 963 q 161 979 133 979 l 175 979 q 228 971 201 979 q 275 944 254 963 q 308 898 296 926 q 321 831 321 869 l 321 685 q 308 597 321 636 q 278 519 296 557 q 238 442 260 481 q 197 355 215 403 q 167 249 179 307 q 154 115 154 190 l 333 115 l 333 0 l 17 0 l 17 115 q 29 267 17 203 q 60 382 42 332 q 100 471 78 432 q 140 547 122 510 q 171 622 158 583 q 183 707 183 660 l 183 810 q 179 852 183 840 q 164 864 175 864 l 161 864 q 146 852 150 864 q 142 811 142 840 l 142 581 l 17 581 z "},"3":{"ha":350,"x_min":17,"x_max":333,"o":"m 164 549 q 190 567 185 549 q 196 615 196 586 l 196 810 q 192 852 196 840 q 176 864 188 864 l 174 864 q 158 852 163 864 q 154 811 154 840 l 154 578 l 17 578 l 17 831 q 29 898 17 869 q 62 944 42 926 q 108 971 82 963 q 161 979 133 979 l 189 979 q 242 971 215 979 q 288 944 268 963 q 321 898 308 926 q 333 831 333 869 l 333 632 q 303 539 333 569 q 232 500 274 508 q 303 467 274 493 q 333 379 333 442 l 333 140 q 321 73 333 101 q 288 26 308 44 q 242 0 268 8 q 189 -8 215 -8 l 161 -8 q 108 0 133 -8 q 62 26 82 8 q 29 73 42 44 q 17 140 17 101 l 17 392 l 154 392 l 154 160 q 158 119 154 131 q 174 107 163 107 l 176 107 q 192 118 188 107 q 196 161 196 129 l 196 383 q 190 431 196 413 q 164 450 185 450 l 124 450 l 124 549 l 164 549 z "},"4":{"ha":394,"x_min":14,"x_max":378,"o":"m 378 240 l 378 125 l 325 125 l 325 0 l 207 0 l 207 125 l 14 125 l 14 240 l 161 971 l 325 971 l 325 240 l 378 240 m 207 588 l 203 588 l 146 243 l 146 240 l 207 240 l 207 588 z "},"5":{"ha":350,"x_min":17,"x_max":333,"o":"m 161 -8 q 108 0 133 -8 q 62 26 82 8 q 29 73 42 44 q 17 140 17 101 l 17 404 l 154 404 l 154 161 q 158 119 154 132 q 174 107 163 107 l 176 107 q 192 119 188 107 q 196 161 196 132 l 196 444 q 192 487 196 475 q 176 499 188 499 l 174 499 q 159 490 163 499 q 154 461 156 482 l 154 433 l 17 433 l 17 971 l 333 971 l 321 856 l 154 856 l 154 567 q 190 602 169 590 q 231 614 210 614 l 239 614 q 274 606 257 614 q 303 579 290 597 q 325 533 317 561 q 333 465 333 504 l 333 140 q 321 73 333 101 q 288 26 308 44 q 242 0 268 8 q 189 -8 215 -8 l 161 -8 z "},"6":{"ha":350,"x_min":17,"x_max":333,"o":"m 161 -8 q 108 0 133 -8 q 62 26 82 8 q 29 73 42 44 q 17 140 17 101 l 17 831 q 29 898 17 869 q 62 944 42 926 q 108 971 82 963 q 161 979 133 979 l 181 979 q 233 971 207 979 q 281 944 260 963 q 314 898 301 926 q 326 831 326 869 l 326 661 l 196 661 l 196 811 q 192 852 196 840 q 176 864 188 864 l 174 864 q 158 852 163 864 q 154 810 154 840 l 154 567 q 190 602 169 590 q 231 614 210 614 l 239 614 q 274 606 257 614 q 303 579 290 597 q 325 533 317 561 q 333 465 333 504 l 333 140 q 321 73 333 101 q 288 26 308 44 q 242 0 268 8 q 189 -8 215 -8 l 161 -8 m 154 161 q 158 119 154 132 q 174 107 163 107 l 176 107 q 192 119 188 107 q 196 161 196 132 l 196 444 q 192 487 196 475 q 176 499 188 499 l 174 499 q 159 490 163 499 q 154 461 156 482 l 154 161 z "},"7":{"ha":306,"x_min":13,"x_max":289,"o":"m 17 0 l 150 868 l 13 868 l 13 971 l 289 971 l 289 868 l 154 0 l 17 0 z "},"8":{"ha":350,"x_min":17,"x_max":333,"o":"m 161 -8 q 108 0 133 -8 q 62 26 82 8 q 29 73 42 44 q 17 140 17 101 l 17 372 q 33 450 17 419 q 78 499 50 481 q 33 547 50 515 q 17 625 17 578 l 17 831 q 29 898 17 869 q 62 944 42 926 q 108 971 82 963 q 161 979 133 979 l 189 979 q 242 971 215 979 q 288 944 268 963 q 321 898 308 926 q 333 831 333 869 l 333 625 q 316 547 333 578 q 271 499 299 515 q 316 450 299 481 q 333 372 333 419 l 333 140 q 321 73 333 101 q 288 26 308 44 q 242 0 268 8 q 189 -8 215 -8 l 161 -8 m 174 457 q 154 403 154 457 l 154 161 q 158 119 154 132 q 174 107 163 107 l 176 107 q 192 119 188 107 q 196 161 196 132 l 196 403 q 176 457 196 457 l 174 457 m 174 864 q 154 810 154 864 l 154 597 q 158 556 154 568 q 174 543 163 543 l 176 543 q 192 556 188 543 q 196 597 196 568 l 196 810 q 176 864 196 864 l 174 864 z "},"9":{"ha":350,"x_min":17,"x_max":333,"o":"m 189 979 q 242 971 215 979 q 288 944 268 963 q 321 898 308 926 q 333 831 333 869 l 333 140 q 321 73 333 101 q 288 26 308 44 q 242 0 268 8 q 189 -8 215 -8 l 169 -8 q 116 0 142 -8 q 69 26 90 8 q 36 73 49 44 q 24 140 24 101 l 24 392 l 154 392 l 154 160 q 158 119 154 131 q 174 107 163 107 l 176 107 q 192 119 188 107 q 196 161 196 131 l 196 485 q 160 450 181 461 q 119 439 139 439 l 111 439 q 46 474 75 439 q 17 588 17 510 l 17 831 q 29 898 17 869 q 62 944 42 926 q 108 971 82 963 q 161 979 133 979 l 189 979 m 196 810 q 192 851 196 839 q 176 864 188 864 l 174 864 q 158 851 163 864 q 154 810 154 839 l 154 608 q 158 565 154 576 q 174 554 163 554 l 176 554 q 192 566 188 554 q 196 607 196 578 l 196 810 z "},"\u0000":{"ha":0,"x_min":0,"x_max":0,"o":""},"\r":{"ha":133,"x_min":0,"x_max":0,"o":""}," ":{"ha":133,"x_min":0,"x_max":0,"o":""},"K":{"ha":353,"x_min":17,"x_max":350,"o":"m 253 501 l 349 0 l 221 0 l 157 317 l 154 317 l 154 0 l 17 0 l 17 971 l 154 971 l 154 629 l 157 629 l 224 971 l 350 971 l 253 501 z "},"L":{"ha":271,"x_min":17,"x_max":267,"o":"m 154 971 l 154 103 l 267 103 l 267 0 l 17 0 l 17 971 l 154 971 z "},"M":{"ha":475,"x_min":17,"x_max":458,"o":"m 458 971 l 458 0 l 344 0 l 344 539 l 342 539 l 286 0 l 188 0 l 135 539 l 132 539 l 132 0 l 17 0 l 17 971 l 193 971 l 235 535 l 238 535 l 282 971 l 458 971 z "},"N":{"ha":399,"x_min":17,"x_max":382,"o":"m 231 0 l 135 539 l 132 539 l 132 0 l 17 0 l 17 971 l 169 971 l 256 449 l 257 449 l 257 971 l 382 971 l 382 0 l 231 0 z "},"O":{"ha":350,"x_min":17,"x_max":333,"o":"m 161 -8 q 108 0 133 -8 q 62 26 82 8 q 29 73 42 44 q 17 140 17 101 l 17 831 q 29 898 17 869 q 62 944 42 926 q 108 971 82 963 q 161 979 133 979 l 189 979 q 242 971 215 979 q 288 944 268 963 q 321 898 308 926 q 333 831 333 869 l 333 140 q 321 73 333 101 q 288 26 308 44 q 242 0 268 8 q 189 -8 215 -8 l 161 -8 m 174 864 q 154 810 154 864 l 154 161 q 158 119 154 132 q 174 107 163 107 l 176 107 q 192 119 188 107 q 196 161 196 132 l 196 810 q 176 864 196 864 l 174 864 z "},"P":{"ha":350,"x_min":17,"x_max":335,"o":"m 190 971 q 294 932 253 971 q 335 824 335 893 l 335 508 q 294 413 335 440 q 192 385 254 385 l 154 385 l 154 0 l 17 0 l 17 971 l 190 971 m 196 803 q 176 856 196 856 l 154 856 l 154 500 l 178 500 q 192 513 189 500 q 196 553 196 525 l 196 803 z "},"Q":{"ha":353,"x_min":17,"x_max":335,"o":"m 161 -8 q 108 0 133 -8 q 62 26 82 8 q 29 73 42 44 q 17 140 17 101 l 17 831 q 29 898 17 869 q 62 944 42 926 q 108 971 82 963 q 161 979 133 979 l 189 979 q 242 971 215 979 q 288 944 268 963 q 321 898 308 926 q 333 831 333 869 l 333 140 q 322 74 333 101 q 290 28 310 47 l 335 -17 l 267 -85 l 192 -8 l 189 -8 l 161 -8 m 174 864 q 154 810 154 864 l 154 161 q 158 119 154 132 q 174 107 163 107 l 176 107 q 192 119 188 107 q 196 161 196 132 l 196 810 q 176 864 196 864 l 174 864 z "},"R":{"ha":360,"x_min":17,"x_max":354,"o":"m 335 579 q 321 513 335 535 q 286 485 307 492 q 321 458 307 479 q 335 392 335 436 l 335 190 q 338 100 335 136 q 344 42 340 64 q 350 11 347 21 q 354 0 353 1 l 215 0 q 200 62 204 17 q 196 190 196 107 l 196 379 q 192 420 196 407 q 178 433 189 433 l 154 433 l 154 0 l 17 0 l 17 971 l 190 971 q 294 932 253 971 q 335 824 335 893 l 335 579 m 178 536 q 192 549 189 536 q 196 588 196 561 l 196 803 q 176 856 196 856 l 154 856 l 154 536 l 178 536 z "},"S":{"ha":350,"x_min":17,"x_max":333,"o":"m 196 581 l 196 811 q 192 852 196 840 q 176 864 188 864 l 174 864 q 158 852 163 864 q 154 810 154 840 l 154 707 q 167 624 154 660 q 201 556 181 588 q 244 497 221 525 q 287 438 267 469 q 320 370 307 407 q 333 286 333 333 l 333 140 q 322 73 333 101 q 290 26 310 44 q 243 0 269 8 q 189 -8 217 -8 l 165 -8 q 111 0 138 -8 q 64 26 85 8 q 30 73 43 44 q 17 140 17 101 l 17 392 l 142 392 l 142 161 q 149 119 142 132 q 168 107 156 107 l 171 107 q 190 119 183 107 q 196 161 196 132 l 196 265 q 183 349 196 313 q 149 415 169 385 q 106 474 129 446 q 63 533 83 501 q 30 600 43 564 q 17 685 17 636 l 17 831 q 29 898 17 869 q 63 944 42 926 q 109 971 83 963 q 163 979 135 979 l 176 979 q 230 971 204 979 q 276 944 256 963 q 308 898 296 926 q 321 831 321 869 l 321 581 l 196 581 z "},"T":{"ha":339,"x_min":3,"x_max":335,"o":"m 335 856 l 239 856 l 239 0 l 100 0 l 100 856 l 3 856 l 3 971 l 335 971 l 335 856 z "},"U":{"ha":350,"x_min":17,"x_max":335,"o":"m 163 -8 q 110 0 136 -8 q 63 26 83 8 q 29 73 42 44 q 17 140 17 101 l 17 971 l 154 971 l 154 161 q 158 119 154 132 q 174 107 163 107 l 178 107 q 192 119 189 107 q 196 161 196 132 l 196 971 l 335 971 l 335 140 q 322 73 335 101 q 290 26 310 44 q 243 0 269 8 q 189 -8 217 -8 l 163 -8 z "},"V":{"ha":351,"x_min":3,"x_max":349,"o":"m 231 971 l 349 971 l 267 0 l 90 0 l 3 971 l 135 971 l 181 375 l 185 375 l 231 971 z "},"W":{"ha":529,"x_min":6,"x_max":524,"o":"m 76 0 l 6 971 l 138 971 l 168 485 l 172 485 l 214 971 l 322 971 l 368 485 l 371 485 l 404 971 l 524 971 l 451 0 l 318 0 l 269 415 l 268 415 l 226 0 l 76 0 z "},"X":{"ha":354,"x_min":3,"x_max":351,"o":"m 249 474 l 351 0 l 211 0 l 169 194 l 135 0 l 3 0 l 104 515 l 3 971 l 139 971 l 179 797 l 210 971 l 347 971 l 249 474 z "},"Y":{"ha":357,"x_min":3,"x_max":354,"o":"m 249 347 l 247 0 l 110 0 l 110 347 l 3 971 l 142 971 l 176 660 l 181 660 l 215 971 l 354 971 l 249 347 z "},"Z":{"ha":333,"x_min":8,"x_max":325,"o":"m 325 0 l 8 0 l 8 103 l 172 868 l 36 868 l 36 971 l 311 971 l 311 868 l 146 103 l 325 103 l 325 0 z "},"a":{"ha":313,"x_min":14,"x_max":303,"o":"m 94 -4 q 49 6 65 -4 q 26 35 33 17 q 16 81 18 54 q 14 140 14 107 l 14 240 q 17 300 14 274 q 30 345 21 326 q 56 374 39 364 q 103 385 74 385 l 107 385 q 174 360 138 385 l 174 544 q 158 585 174 585 l 156 585 q 142 544 142 585 l 142 404 l 14 404 l 14 547 q 51 653 14 614 q 146 692 88 692 l 172 692 q 267 653 231 692 q 303 546 303 614 l 303 0 l 174 0 l 174 22 q 99 -4 133 -4 l 94 -4 m 156 290 q 142 250 142 290 l 142 131 q 156 90 142 90 l 158 90 q 174 131 174 90 l 174 281 q 167 290 174 290 l 156 290 z "},"b":{"ha":314,"x_min":14,"x_max":303,"o":"m 204 -4 q 166 6 185 -4 q 129 35 147 17 l 117 0 l 14 0 l 14 971 l 142 971 l 142 661 q 174 683 157 675 q 210 692 192 692 l 213 692 q 260 681 242 692 q 287 652 278 671 q 299 607 296 633 q 303 547 303 581 l 303 140 q 285 35 303 74 q 208 -4 267 -4 l 204 -4 m 157 585 q 142 554 143 585 l 142 144 q 158 103 142 103 l 160 103 q 175 143 175 103 l 175 544 q 158 585 175 585 l 157 585 z "},"c":{"ha":313,"x_min":14,"x_max":303,"o":"m 174 404 l 174 544 q 160 585 174 585 l 157 585 q 142 544 142 585 l 142 143 q 157 103 142 103 l 160 103 q 174 143 174 103 l 174 286 l 303 286 l 303 142 q 265 35 303 74 q 169 -4 228 -4 l 143 -4 q 49 35 85 -4 q 14 142 14 75 l 14 546 q 49 653 14 614 q 143 692 85 692 l 169 692 q 265 653 228 692 q 303 547 303 614 l 303 404 l 174 404 z "},"d":{"ha":317,"x_min":14,"x_max":303,"o":"m 107 -4 q 32 35 50 -4 q 14 140 14 75 l 14 547 q 17 607 14 581 q 30 652 21 633 q 56 681 39 671 q 103 692 74 692 l 107 692 q 174 661 140 692 l 174 971 l 303 971 l 303 0 l 199 0 l 186 33 q 111 -4 149 -4 l 107 -4 m 157 585 q 142 544 142 585 l 142 143 q 156 103 142 103 l 158 103 q 174 144 174 103 l 174 556 q 158 585 171 585 l 157 585 z "},"e":{"ha":313,"x_min":14,"x_max":303,"o":"m 157 103 l 160 103 q 174 143 174 103 l 174 286 l 303 286 l 303 142 q 265 35 303 74 q 169 -4 228 -4 l 143 -4 q 49 35 85 -4 q 14 142 14 75 l 14 546 q 49 653 14 614 q 143 692 85 692 l 169 692 q 265 653 228 692 q 303 547 303 614 l 303 311 l 142 311 l 142 143 q 157 103 142 103 m 174 399 l 174 544 q 160 585 174 585 l 157 585 q 142 544 142 585 l 142 399 l 174 399 z "},"f":{"ha":263,"x_min":14,"x_max":260,"o":"m 44 0 l 44 581 l 14 581 l 14 688 l 44 688 l 44 836 q 58 899 44 869 q 97 949 71 929 q 164 977 124 969 q 260 972 204 985 l 260 871 q 235 870 250 871 q 207 865 221 869 q 183 852 193 861 q 174 826 174 843 l 174 688 l 260 688 l 260 581 l 174 581 l 174 0 l 44 0 z "},"g":{"ha":314,"x_min":14,"x_max":303,"o":"m 303 688 l 303 -83 q 267 -190 303 -150 q 174 -229 232 -229 l 146 -229 q 51 -190 88 -229 q 14 -83 14 -151 l 14 -40 l 142 -40 l 142 -82 q 156 -122 142 -122 l 160 -122 q 174 -82 174 -122 l 174 24 q 107 -4 139 -4 l 103 -4 q 56 6 74 -4 q 30 35 39 17 q 17 81 21 54 q 14 140 14 107 l 14 547 q 32 652 14 613 q 107 692 50 692 l 111 692 q 149 682 131 692 q 185 657 167 672 l 199 688 l 303 688 m 158 103 q 174 133 172 103 l 174 556 q 158 585 172 585 l 156 585 q 142 544 142 585 l 142 143 q 156 103 142 103 l 158 103 z "},"h":{"ha":319,"x_min":17,"x_max":308,"o":"m 164 585 q 144 551 147 585 l 144 0 l 17 0 l 17 971 l 144 971 l 144 657 q 178 682 161 672 q 215 692 196 692 l 218 692 q 265 681 247 692 q 292 652 283 671 q 305 607 301 633 q 308 547 308 581 l 308 0 l 179 0 l 179 544 q 165 585 179 585 l 164 585 z "},"i":{"ha":156,"x_min":17,"x_max":144,"o":"m 144 688 l 144 0 l 17 0 l 17 688 l 144 688 m 144 871 l 144 732 l 17 732 l 17 871 l 144 871 z "},"j":{"ha":207,"x_min":14,"x_max":193,"o":"m 193 872 l 193 732 l 64 732 l 64 872 l 193 872 m 193 688 l 193 -85 q 153 -190 193 -150 q 14 -229 113 -229 l 14 -122 q 64 -85 64 -122 l 64 688 l 193 688 z "},"k":{"ha":336,"x_min":17,"x_max":333,"o":"m 221 358 l 333 0 l 204 0 l 143 210 l 143 0 l 17 0 l 17 971 l 143 971 l 143 488 l 210 688 l 333 688 l 221 358 z "},"l":{"ha":156,"x_min":17,"x_max":144,"o":"m 17 971 l 144 971 l 144 0 l 17 0 l 17 971 z "},"m":{"ha":479,"x_min":14,"x_max":468,"o":"m 161 585 q 142 551 144 585 l 142 0 l 14 0 l 14 688 l 142 688 l 142 658 q 213 692 178 692 l 215 692 q 265 680 247 692 q 292 647 282 668 q 333 679 311 667 q 375 692 354 692 l 379 692 q 426 681 408 692 q 452 652 443 671 q 465 607 461 633 q 468 547 468 581 l 468 0 l 340 0 l 340 544 q 326 585 340 585 l 324 585 q 306 547 306 585 l 306 0 l 178 0 l 178 544 q 163 585 178 585 l 161 585 z "},"n":{"ha":317,"x_min":14,"x_max":306,"o":"m 161 585 q 142 551 144 585 l 142 0 l 14 0 l 14 688 l 142 688 l 142 658 q 213 692 178 692 l 215 692 q 263 681 244 692 q 290 652 281 671 q 302 607 299 633 q 306 547 306 581 l 306 0 l 178 0 l 178 544 q 163 585 178 585 l 161 585 z "},"o":{"ha":313,"x_min":14,"x_max":303,"o":"m 143 -4 q 49 35 85 -4 q 14 140 14 74 l 14 547 q 49 653 14 614 q 143 692 85 692 l 169 692 q 265 653 228 692 q 303 547 303 614 l 303 140 q 265 35 303 74 q 169 -4 228 -4 l 143 -4 m 157 585 q 142 544 142 585 l 142 143 q 157 103 142 103 l 160 103 q 174 143 174 103 l 174 544 q 160 585 174 585 l 157 585 z "},"p":{"ha":317,"x_min":17,"x_max":306,"o":"m 211 692 q 288 653 269 692 q 306 547 306 614 l 306 140 q 302 81 306 107 q 290 35 299 54 q 263 6 281 17 q 215 -4 244 -4 l 213 -4 q 144 26 178 -4 l 144 -229 l 17 -229 l 17 688 l 119 688 l 132 653 q 169 681 150 671 q 207 692 188 692 l 211 692 m 163 103 q 178 143 178 103 l 178 544 q 163 585 178 585 l 161 585 q 144 556 146 585 l 144 144 q 161 103 144 103 l 163 103 z "},"q":{"ha":317,"x_min":14,"x_max":303,"o":"m 111 692 q 149 681 131 692 q 186 653 168 671 l 199 688 l 303 688 l 303 -229 l 174 -229 l 174 25 q 107 -4 140 -4 l 103 -4 q 56 6 74 -4 q 30 35 39 17 q 17 81 21 54 q 14 140 14 107 l 14 547 q 32 652 14 613 q 107 692 50 692 l 111 692 m 158 103 q 174 144 174 103 l 174 543 q 158 585 174 585 l 156 585 q 142 544 142 585 l 142 143 q 156 103 142 103 l 158 103 z "},"r":{"ha":317,"x_min":14,"x_max":306,"o":"m 161 585 q 142 551 144 585 l 142 0 l 14 0 l 14 688 l 142 688 l 142 658 q 213 692 178 692 l 215 692 q 293 643 276 692 q 306 547 306 606 l 306 404 l 178 404 l 178 544 q 163 585 178 585 l 161 585 z "},"s":{"ha":313,"x_min":14,"x_max":303,"o":"m 174 417 l 174 544 q 171 573 174 561 q 158 585 168 585 l 156 585 q 145 573 149 585 q 142 544 142 561 l 142 490 q 153 439 142 461 q 183 397 165 417 q 222 359 201 378 q 261 319 243 340 q 291 269 279 297 q 303 206 303 242 l 303 140 q 265 35 303 74 q 169 -4 228 -4 l 146 -4 q 50 35 86 -4 q 14 140 14 74 l 14 271 l 129 271 l 129 143 q 133 113 129 124 q 150 103 138 103 l 153 103 q 170 113 167 103 q 174 143 174 124 l 174 197 q 149 269 174 240 q 94 327 124 299 q 39 391 64 356 q 14 482 14 426 l 14 549 q 50 652 14 613 q 144 692 86 692 l 157 692 q 253 653 217 692 q 290 549 290 614 l 290 417 l 174 417 z "},"t":{"ha":231,"x_min":11,"x_max":221,"o":"m 171 913 l 171 688 l 221 688 l 221 581 l 171 581 l 171 140 q 184 105 171 117 q 221 101 197 93 l 221 0 q 137 1 171 -8 q 82 30 103 10 q 52 78 61 50 q 43 140 43 107 l 43 581 l 11 581 l 11 688 l 43 688 l 43 900 l 171 913 z "},"u":{"ha":317,"x_min":11,"x_max":303,"o":"m 156 103 q 175 136 172 103 l 175 688 l 303 688 l 303 0 l 175 0 l 175 29 q 104 -4 139 -4 l 101 -4 q 54 6 72 -4 q 27 35 36 17 q 15 81 18 54 q 11 140 11 107 l 11 688 l 139 688 l 139 143 q 153 103 139 103 l 156 103 z "},"v":{"ha":293,"x_min":3,"x_max":290,"o":"m 183 688 l 290 688 l 228 0 l 69 0 l 3 688 l 121 688 l 150 265 l 154 265 l 183 688 z "},"w":{"ha":497,"x_min":3,"x_max":494,"o":"m 74 0 l 3 688 l 122 688 l 153 343 l 157 343 l 199 688 l 307 688 l 350 343 l 354 343 l 386 688 l 494 688 l 422 0 l 283 0 l 242 401 l 239 401 l 211 0 l 74 0 z "},"x":{"ha":344,"x_min":3,"x_max":342,"o":"m 229 363 l 342 0 l 215 0 l 168 165 l 118 0 l 3 0 l 108 350 l 6 688 l 131 688 l 171 551 l 213 688 l 328 688 l 229 363 z "},"y":{"ha":294,"x_min":3,"x_max":292,"o":"m 188 688 l 292 688 l 210 -229 l 83 -229 l 111 0 l 3 688 l 118 688 l 153 350 l 157 350 l 188 688 z "},"z":{"ha":293,"x_min":3,"x_max":289,"o":"m 288 0 l 3 0 l 3 104 l 164 585 l 17 585 l 17 688 l 289 688 l 289 586 l 128 104 l 288 104 l 288 0 z "},"$":{"ha":350,"x_min":17,"x_max":333,"o":"m 129 -4 q 51 39 85 4 q 17 140 17 74 l 17 392 l 142 392 l 142 161 q 149 119 142 132 q 168 107 156 107 l 171 107 q 190 119 183 107 q 196 161 196 132 l 196 265 q 183 349 196 313 q 149 415 169 385 q 106 474 129 446 q 63 533 83 501 q 30 600 43 564 q 17 685 17 636 l 17 831 q 51 932 17 897 q 129 976 85 967 l 129 1050 l 219 1050 l 219 974 q 291 928 261 963 q 321 831 321 893 l 321 581 l 196 581 l 196 811 q 192 852 196 840 q 176 864 188 864 l 174 864 q 158 852 163 864 q 154 810 154 840 l 154 707 q 167 624 154 660 q 201 556 181 588 q 244 497 221 525 q 287 438 267 469 q 320 370 307 407 q 333 286 333 333 l 333 140 q 300 37 333 72 q 219 -6 267 1 l 219 -79 l 129 -79 l 129 -4 z "},"D":{"ha":350,"x_min":17,"x_max":335,"o":"m 17 0 l 17 971 l 189 971 q 242 963 215 971 q 289 936 268 954 q 322 890 310 918 q 335 824 335 863 l 335 147 q 322 81 335 108 q 289 35 310 53 q 242 8 268 17 q 189 0 215 0 l 17 0 m 154 856 l 154 115 l 178 115 q 192 128 189 115 q 196 169 196 140 l 196 801 q 178 856 196 856 l 154 856 z "},"ﬁ":{"ha":363,"x_min":17,"x_max":351,"o":"m 47 0 l 47 581 l 17 581 l 17 688 l 47 688 l 47 836 q 60 899 47 869 q 100 949 74 929 q 167 977 126 969 q 261 972 207 985 l 261 871 q 238 870 253 871 q 210 865 224 869 q 185 852 196 861 q 175 826 175 843 l 175 688 l 351 688 l 351 0 l 224 0 l 224 581 l 175 581 l 175 0 l 47 0 z "},"…":{"ha":597,"x_min":31,"x_max":567,"o":"m 171 0 l 31 0 l 31 151 l 171 151 l 171 0 m 368 0 l 228 0 l 228 151 l 368 151 l 368 0 m 567 0 l 425 0 l 425 151 l 567 151 l 567 0 z "},"!":{"ha":201,"x_min":31,"x_max":171,"o":"m 150 193 l 49 193 l 31 599 l 31 971 l 168 971 l 168 599 l 150 193 m 171 0 l 31 0 l 31 151 l 171 151 l 171 0 z "},".":{"ha":201,"x_min":31,"x_max":171,"o":"m 171 0 l 31 0 l 31 151 l 171 151 l 171 0 z "},",":{"ha":203,"x_min":31,"x_max":171,"o":"m 171 0 l 132 -90 l 75 -90 l 96 0 l 31 0 l 31 151 l 171 151 l 171 0 z "},":":{"ha":201,"x_min":31,"x_max":171,"o":"m 171 425 l 31 425 l 31 576 l 171 576 l 171 425 m 171 0 l 31 0 l 31 151 l 171 151 l 171 0 z "},";":{"ha":206,"x_min":32,"x_max":175,"o":"m 174 425 l 32 425 l 32 576 l 174 576 l 174 425 m 175 0 l 136 -90 l 79 -90 l 100 0 l 35 0 l 35 151 l 175 151 l 175 0 z "},"”":{"ha":401,"x_min":32,"x_max":371,"o":"m 174 819 l 133 729 l 76 729 l 97 819 l 32 819 l 32 971 l 174 971 l 174 819 m 371 819 l 331 729 l 274 729 l 294 819 l 231 819 l 231 971 l 371 971 l 371 819 z "},"“":{"ha":401,"x_min":31,"x_max":368,"o":"m 31 861 l 69 951 l 126 951 l 106 861 l 171 861 l 171 710 l 31 710 l 31 861 m 228 861 l 268 951 l 325 951 l 304 861 l 368 861 l 368 710 l 228 710 l 228 861 z "},"’":{"ha":204,"x_min":32,"x_max":174,"o":"m 174 790 l 133 701 l 76 701 l 97 790 l 32 790 l 32 943 l 174 943 l 174 790 z "},"‘":{"ha":204,"x_min":31,"x_max":171,"o":"m 31 861 l 69 951 l 126 951 l 106 861 l 171 861 l 171 710 l 31 710 l 31 861 z "},"?":{"ha":338,"x_min":17,"x_max":321,"o":"m 17 581 l 17 831 q 29 898 17 869 q 62 944 42 926 q 108 971 82 963 q 161 979 133 979 l 175 979 q 228 971 201 979 q 275 944 254 963 q 308 898 296 926 q 321 831 321 869 l 321 685 q 310 598 321 636 q 283 526 299 560 q 251 458 268 492 q 221 385 233 424 q 204 301 208 347 q 211 193 200 254 l 74 193 q 67 318 63 265 q 83 413 71 371 q 113 488 96 454 q 146 553 131 521 q 172 623 161 586 q 183 707 183 660 l 183 810 q 179 852 183 840 q 164 864 175 864 l 161 864 q 146 852 150 864 q 142 811 142 840 l 142 581 l 17 581 m 214 0 l 74 0 l 74 151 l 214 151 l 214 0 z "},"|":{"ha":186,"x_min":29,"x_max":157,"o":"m 29 1013 l 157 1013 l 157 -42 l 29 -42 l 29 1013 z "},"/":{"ha":338,"x_min":3,"x_max":335,"o":"m 218 971 l 335 971 l 118 0 l 3 0 l 218 971 z "},"\\":{"ha":338,"x_min":3,"x_max":335,"o":"m 335 0 l 218 0 l 3 971 l 118 971 l 335 0 z "},"⁄":{"ha":338,"x_min":3,"x_max":335,"o":"m 218 971 l 335 971 l 118 0 l 3 0 l 218 971 z "},"<":{"ha":333,"x_min":17,"x_max":317,"o":"m 317 1 l 313 -1 l 17 308 l 17 372 l 311 683 l 315 681 l 315 540 l 313 535 l 135 344 l 135 340 l 313 151 l 315 147 l 317 1 z "},">":{"ha":333,"x_min":17,"x_max":317,"o":"m 18 146 l 21 151 l 199 340 l 199 344 l 21 535 l 18 540 l 18 679 l 22 683 l 317 372 l 317 308 l 22 -1 l 17 1 l 18 146 z "},"%":{"ha":643,"x_min":17,"x_max":626,"o":"m 424 971 l 114 0 l 213 0 l 524 971 l 424 971 m 122 419 q 47 451 76 419 q 17 536 17 482 l 17 861 q 47 947 17 915 q 122 979 76 979 l 146 979 q 224 947 193 979 q 254 861 254 915 l 254 536 q 224 451 254 482 q 146 419 193 419 l 122 419 m 135 893 q 119 857 119 893 l 119 540 q 135 504 119 504 l 138 504 q 151 540 151 504 l 151 857 q 138 893 151 893 l 135 893 m 494 -8 q 419 24 449 -8 q 389 110 389 56 l 389 438 q 419 522 389 490 q 494 554 449 554 l 518 554 q 596 522 565 554 q 626 438 626 490 l 626 110 q 596 24 626 56 q 518 -8 565 -8 l 494 -8 m 506 468 q 492 432 492 468 l 492 113 q 506 78 492 78 l 510 78 q 524 113 524 78 l 524 432 q 510 468 524 468 l 506 468 z "},"‰":{"ha":908,"x_min":17,"x_max":892,"o":"m 424 971 l 114 0 l 211 0 l 524 971 l 424 971 m 122 419 q 46 451 75 419 q 17 536 17 482 l 17 861 q 46 947 17 915 q 122 979 75 979 l 144 979 q 224 947 193 979 q 254 861 254 915 l 254 536 q 224 451 254 482 q 144 419 193 419 l 122 419 m 133 893 q 119 857 119 893 l 119 540 q 133 504 119 504 l 138 504 q 150 540 150 504 l 150 857 q 138 893 150 893 l 133 893 m 494 -8 q 417 24 447 -8 q 388 110 388 56 l 388 438 q 418 522 389 490 q 494 554 447 554 l 517 554 q 595 522 565 554 q 625 438 625 490 l 625 110 q 595 24 625 56 q 517 -8 565 -8 l 494 -8 m 506 468 q 492 432 492 468 l 492 113 q 506 78 492 78 l 510 78 q 522 113 522 78 l 522 432 q 510 468 522 468 l 506 468 m 761 -8 q 684 24 714 -8 q 654 110 654 56 l 654 438 q 684 522 654 490 q 761 554 714 554 l 783 554 q 862 522 832 554 q 892 438 892 490 l 892 110 q 862 24 892 56 q 783 -8 832 -8 l 761 -8 m 772 468 q 758 432 758 468 l 758 113 q 772 78 758 78 l 776 78 q 789 113 789 78 l 789 432 q 776 468 789 468 l 772 468 z "},"«":{"ha":401,"x_min":17,"x_max":385,"o":"m 85 53 l 17 336 l 81 614 l 200 614 l 136 333 l 206 53 l 85 53 m 264 53 l 196 336 l 260 614 l 379 614 l 315 333 l 385 53 l 264 53 z "},"»":{"ha":401,"x_min":17,"x_max":385,"o":"m 17 53 l 86 333 l 22 614 l 142 614 l 206 336 l 138 53 l 17 53 m 196 53 l 265 333 l 201 614 l 321 614 l 385 336 l 317 53 l 196 53 z "},"^":{"ha":394,"x_min":17,"x_max":378,"o":"m 254 575 l 249 578 l 200 760 l 196 760 l 146 578 l 142 575 l 21 575 l 17 581 l 122 971 l 272 971 l 378 581 l 375 575 l 254 575 z "},"*":{"ha":261,"x_min":17,"x_max":246,"o":"m 93 746 l 36 786 l 78 840 l 17 858 l 39 926 l 99 901 l 96 971 l 167 971 l 164 901 l 224 926 l 246 858 l 183 840 l 226 786 l 168 746 l 131 806 l 93 746 z "},"#":{"ha":533,"x_min":17,"x_max":517,"o":"m 476 278 l 404 278 l 381 0 l 256 0 l 279 278 l 217 278 l 193 0 l 69 0 l 93 278 l 17 278 l 26 390 l 103 390 l 118 578 l 44 578 l 54 692 l 128 692 l 151 971 l 275 971 l 251 692 l 314 692 l 339 971 l 463 971 l 439 692 l 517 692 l 504 578 l 429 578 l 414 390 l 489 390 l 476 278 m 226 390 l 289 390 l 304 578 l 242 578 l 226 390 z "},"[":{"ha":306,"x_min":17,"x_max":249,"o":"m 17 -78 l 17 1049 l 249 1049 l 249 933 l 154 933 l 154 38 l 249 38 l 249 -78 l 17 -78 z "},"]":{"ha":306,"x_min":57,"x_max":289,"o":"m 57 -78 l 57 38 l 151 38 l 151 933 l 57 933 l 57 1049 l 289 1049 l 289 -78 l 57 -78 z "},"(":{"ha":314,"x_min":17,"x_max":257,"o":"m 186 -50 q 119 -41 150 -50 q 65 -9 88 -32 q 29 52 42 14 q 17 149 17 90 l 17 822 q 29 919 17 881 q 65 980 42 957 q 119 1012 88 1003 q 186 1021 150 1021 l 257 1021 l 257 906 l 236 906 q 190 896 207 906 q 166 867 174 886 q 156 819 158 847 q 154 751 154 790 l 154 219 q 156 153 154 182 q 166 104 158 124 q 190 75 174 85 q 236 65 207 65 l 257 65 l 257 -50 l 186 -50 z "},")":{"ha":314,"x_min":57,"x_max":297,"o":"m 57 -50 l 57 65 l 78 65 q 124 75 107 65 q 148 104 140 85 q 158 153 156 124 q 160 219 160 182 l 160 751 q 158 819 160 790 q 148 867 156 847 q 124 896 140 886 q 78 906 107 906 l 57 906 l 57 1021 l 126 1021 q 194 1012 163 1021 q 248 980 225 1003 q 284 919 271 957 q 297 822 297 881 l 297 149 q 284 52 297 90 q 248 -9 271 14 q 194 -41 225 -32 q 126 -50 163 -50 l 57 -50 z "},"{":{"ha":339,"x_min":14,"x_max":283,"o":"m 14 549 l 29 549 q 60 556 49 549 q 78 574 72 563 q 85 599 83 585 q 86 628 86 613 l 86 893 q 99 972 86 940 q 131 1024 111 1004 q 177 1053 151 1044 q 231 1063 203 1063 l 283 1063 l 283 947 l 281 947 q 249 940 260 947 q 232 922 238 933 q 225 897 226 911 q 224 868 224 882 l 224 632 q 212 569 224 594 q 181 527 200 543 q 138 504 163 511 q 89 496 114 497 q 138 487 114 494 q 181 463 163 479 q 212 422 200 447 q 224 360 224 397 l 224 124 q 232 69 224 93 q 281 44 240 44 l 283 44 l 283 -71 l 231 -71 q 177 -62 203 -71 q 131 -33 151 -53 q 99 19 111 -12 q 86 99 86 51 l 86 364 q 85 392 86 378 q 78 418 83 407 q 60 436 72 429 q 29 443 49 443 l 14 443 l 14 496 l 14 549 z "},"}":{"ha":339,"x_min":56,"x_max":325,"o":"m 325 549 l 325 443 l 310 443 q 278 436 290 443 q 261 418 267 429 q 254 392 256 407 q 253 364 253 378 l 253 99 q 240 19 253 51 q 208 -33 228 -12 q 161 -62 188 -53 q 107 -71 135 -71 l 56 -71 l 56 44 l 58 44 q 106 69 97 44 q 115 124 115 93 l 115 360 q 126 422 115 397 q 156 463 138 447 q 199 487 175 479 q 249 496 222 494 q 199 504 222 497 q 156 527 175 511 q 126 569 138 543 q 115 632 115 594 l 115 868 q 114 897 115 882 q 107 922 113 911 q 90 940 101 933 q 58 947 78 947 l 56 947 l 56 1063 l 107 1063 q 161 1053 135 1063 q 208 1024 188 1044 q 240 972 228 1004 q 253 893 253 940 l 253 628 q 254 599 253 613 q 261 574 256 585 q 278 556 267 563 q 310 549 290 549 l 325 549 z "},"@":{"ha":646,"x_min":17,"x_max":631,"o":"m 292 -8 q 163 13 215 -8 q 78 67 111 33 q 31 141 46 100 q 17 221 17 182 l 17 597 q 31 677 17 636 q 78 751 46 718 q 163 806 111 785 q 292 826 215 826 l 354 826 q 483 806 431 826 q 569 751 536 785 q 616 677 601 718 q 631 597 631 636 l 631 250 q 597 188 631 210 q 519 160 564 165 q 429 165 474 154 q 363 204 385 176 q 322 169 343 182 q 278 157 300 157 l 275 157 q 228 167 246 157 q 201 197 210 178 q 188 242 192 215 q 185 301 185 268 l 185 514 q 203 619 185 581 q 279 658 221 658 l 283 658 q 321 648 303 658 q 356 621 339 638 l 371 658 l 461 658 l 461 307 q 468 281 461 289 q 483 272 475 272 q 497 281 490 272 q 504 307 504 290 l 504 590 q 501 627 504 604 q 484 672 499 650 q 440 708 469 693 q 356 724 410 724 l 292 724 q 207 708 238 724 q 162 672 176 693 q 144 627 147 650 q 142 589 142 604 l 142 229 q 144 192 142 214 q 162 147 147 169 q 207 110 176 125 q 292 94 238 94 l 356 94 q 440 110 411 94 q 481 143 468 126 l 575 74 q 496 18 547 44 q 354 -8 444 -8 l 292 -8 m 329 264 q 346 294 344 264 l 346 510 q 329 551 346 551 l 328 551 q 313 511 313 551 l 313 304 q 328 264 313 264 l 329 264 z "},"&":{"ha":350,"x_min":17,"x_max":333,"o":"m 226 549 l 226 450 l 186 450 q 160 431 165 450 q 154 383 154 413 l 154 161 q 158 118 154 129 q 174 107 163 107 l 176 107 q 192 119 188 107 q 196 160 196 131 l 196 392 l 333 392 l 333 140 q 299 38 333 72 q 219 -6 264 3 l 219 -79 l 128 -79 l 128 -6 q 50 38 83 3 q 17 140 17 74 l 17 379 q 47 467 17 442 q 118 500 76 493 q 47 539 76 508 q 17 632 17 569 l 17 831 q 50 932 17 897 q 128 975 83 967 l 128 1050 l 219 1050 l 219 976 q 299 933 264 968 q 333 831 333 897 l 333 578 l 196 578 l 196 811 q 192 852 196 840 q 176 864 188 864 l 174 864 q 158 852 163 864 q 154 810 154 840 l 154 615 q 160 567 154 586 q 186 549 165 549 l 226 549 z "},"˜":{"ha":325,"x_min":31,"x_max":294,"o":"m 31 860 q 66 905 46 892 q 104 918 86 918 q 150 907 129 918 q 197 896 171 896 q 213 900 206 896 q 232 915 221 904 l 294 875 q 255 828 275 840 q 215 817 235 817 q 169 828 189 817 q 129 839 149 839 q 108 836 118 839 q 88 821 99 833 l 31 860 z "},"+":{"ha":419,"x_min":17,"x_max":403,"o":"m 156 532 l 156 692 l 261 692 l 261 532 l 403 532 l 403 439 l 261 439 l 261 281 l 156 281 l 156 439 l 17 439 l 17 532 l 156 532 z "},"-":{"ha":351,"x_min":17,"x_max":335,"o":"m 335 532 l 335 439 l 17 439 l 17 532 l 335 532 z "},"–":{"ha":453,"x_min":17,"x_max":436,"o":"m 436 439 l 17 439 l 17 532 l 436 532 l 436 439 z "},"—":{"ha":646,"x_min":17,"x_max":631,"o":"m 631 439 l 17 439 l 17 532 l 631 532 l 631 439 z "},"_":{"ha":463,"x_min":17,"x_max":446,"o":"m 446 0 l 17 0 l 17 93 l 446 93 l 446 0 z "},"=":{"ha":433,"x_min":17,"x_max":417,"o":"m 417 625 l 417 532 l 17 532 l 17 625 l 417 625 m 417 444 l 417 351 l 17 351 l 17 444 l 417 444 z "},"•":{"ha":193,"x_min":17,"x_max":176,"o":"m 96 265 q 38 290 60 265 q 17 344 17 315 q 42 404 17 383 q 96 425 67 425 q 156 399 135 425 q 176 344 176 372 q 150 285 176 306 q 96 265 124 265 z "},"¡":{"ha":201,"x_min":31,"x_max":171,"o":"m 171 819 l 31 819 l 31 971 l 171 971 l 171 819 m 168 372 l 168 0 l 31 0 l 31 372 l 49 778 l 150 778 l 168 372 z "},"†":{"ha":300,"x_min":17,"x_max":283,"o":"m 214 971 l 214 604 l 283 604 l 283 497 l 214 497 l 214 -229 l 86 -229 l 86 497 l 17 497 l 17 604 l 86 604 l 86 971 l 214 971 z "},"‡":{"ha":300,"x_min":17,"x_max":283,"o":"m 214 971 l 214 604 l 283 604 l 283 497 l 214 497 l 214 244 l 283 244 l 283 138 l 214 138 l 214 -229 l 86 -229 l 86 138 l 17 138 l 17 244 l 86 244 l 86 497 l 17 497 l 17 604 l 86 604 l 86 971 l 214 971 z "},"›":{"ha":222,"x_min":17,"x_max":206,"o":"m 17 53 l 86 333 l 22 614 l 142 614 l 206 336 l 138 53 l 17 53 z "},"‹":{"ha":222,"x_min":17,"x_max":206,"o":"m 85 53 l 17 336 l 81 614 l 200 614 l 136 333 l 206 53 l 85 53 z "},"ˆ":{"ha":328,"x_min":17,"x_max":311,"o":"m 226 926 l 311 807 l 190 807 l 164 860 l 138 807 l 17 807 l 101 926 l 226 926 z "},"°":{"ha":160,"x_min":14,"x_max":146,"o":"m 79 838 q 33 857 51 838 q 14 904 14 876 q 33 951 14 932 q 79 971 51 971 q 126 951 107 971 q 146 904 146 932 q 126 857 146 876 q 79 838 107 838 m 79 942 q 53 931 64 942 q 43 904 43 919 q 53 878 43 889 q 79 867 64 867 q 106 878 94 867 q 117 904 117 889 q 106 931 117 919 q 79 942 94 942 z "},"'":{"ha":204,"x_min":32,"x_max":174,"o":"m 174 819 l 133 729 l 76 729 l 97 819 l 32 819 l 32 971 l 174 971 l 174 819 z "},"\"":{"ha":401,"x_min":32,"x_max":371,"o":"m 174 819 l 133 729 l 76 729 l 97 819 l 32 819 l 32 971 l 174 971 l 174 819 m 371 819 l 331 729 l 274 729 l 294 819 l 231 819 l 231 971 l 371 971 l 371 819 z "},"‚":{"ha":204,"x_min":32,"x_max":174,"o":"m 174 0 l 133 -90 l 76 -90 l 97 0 l 32 0 l 32 151 l 174 151 l 174 0 z "},"„":{"ha":401,"x_min":32,"x_max":371,"o":"m 174 0 l 133 -90 l 76 -90 l 97 0 l 32 0 l 32 151 l 174 151 l 174 0 m 371 0 l 331 -90 l 274 -90 l 294 0 l 231 0 l 231 151 l 371 151 l 371 0 z "},"~":{"ha":438,"x_min":17,"x_max":421,"o":"m 17 325 q 72 397 44 376 q 129 418 99 418 q 166 412 149 418 q 201 398 183 406 q 235 384 218 390 q 272 378 253 378 q 299 386 288 378 q 335 422 311 394 l 421 357 q 365 282 393 300 q 299 264 336 264 q 261 270 279 264 q 225 285 243 276 q 190 299 207 293 q 158 306 174 306 q 129 297 142 306 q 93 260 117 288 l 17 325 z "},"´":{"ha":229,"x_min":31,"x_max":199,"o":"m 31 807 l 78 926 l 199 926 l 114 807 l 31 807 z "},"`":{"ha":229,"x_min":31,"x_max":199,"o":"m 115 807 l 31 926 l 151 926 l 199 807 l 115 807 z "},"¨":{"ha":290,"x_min":31,"x_max":260,"o":"m 121 817 l 31 817 l 31 918 l 121 918 l 121 817 m 260 817 l 169 817 l 169 918 l 260 918 l 260 817 z "},"˚":{"ha":257,"x_min":31,"x_max":226,"o":"m 126 764 q 91 772 108 764 q 60 793 74 779 q 39 824 47 807 q 31 860 31 840 q 38 897 31 879 q 59 929 46 915 q 90 951 72 943 q 125 960 107 960 q 164 951 146 960 q 196 929 182 943 q 218 897 210 915 q 226 860 226 879 q 197 793 226 822 q 126 764 168 764 m 126 888 q 108 879 117 888 q 100 860 100 871 q 108 842 100 850 q 126 833 117 833 q 146 842 138 833 q 154 860 154 850 q 146 879 154 871 q 126 888 138 888 z "},"ˇ":{"ha":356,"x_min":31,"x_max":325,"o":"m 115 807 l 31 926 l 151 926 l 178 874 l 204 926 l 325 926 l 240 807 l 115 807 z "},"˘":{"ha":276,"x_min":31,"x_max":246,"o":"m 110 921 q 117 901 110 910 q 138 893 125 893 q 156 901 149 893 q 164 921 164 910 l 246 921 q 237 881 246 900 q 213 847 228 861 q 178 823 199 832 q 136 814 158 814 q 96 823 115 814 q 62 847 76 832 q 39 881 47 861 q 31 921 31 900 l 110 921 z "},"˝":{"ha":371,"x_min":31,"x_max":340,"o":"m 172 804 l 219 924 l 340 924 l 256 804 l 172 804 m 31 804 l 78 924 l 199 924 l 114 804 l 31 804 z "},"˙":{"ha":151,"x_min":31,"x_max":121,"o":"m 121 818 l 31 818 l 31 919 l 121 919 l 121 818 z "},"˛":{"ha":218,"x_min":31,"x_max":188,"o":"m 188 -97 q 147 -136 174 -125 q 95 -143 121 -147 q 50 -121 69 -139 q 31 -72 31 -103 q 68 0 31 -32 l 167 0 q 122 -25 139 -7 q 106 -58 104 -43 q 119 -76 107 -74 q 142 -67 131 -78 l 188 -97 z "},"¸":{"ha":251,"x_min":31,"x_max":221,"o":"m 31 -150 l 43 -87 q 72 -99 56 -96 q 101 -101 88 -103 q 124 -93 115 -100 q 129 -74 132 -86 q 110 -58 126 -61 q 81 -65 94 -56 l 54 -56 l 83 0 l 160 0 l 147 -32 q 197 -31 174 -19 q 221 -72 221 -42 q 197 -135 221 -112 q 142 -166 174 -158 q 78 -169 110 -174 q 31 -150 47 -164 z "},"B":{"ha":350,"x_min":17,"x_max":335,"o":"m 335 593 q 321 527 335 549 q 286 499 307 506 q 321 472 307 493 q 335 406 335 450 l 335 146 q 322 79 335 107 q 290 34 310 51 q 243 8 269 17 q 189 0 217 0 l 17 0 l 17 971 l 189 971 q 243 963 217 971 q 290 936 269 954 q 322 890 310 918 q 335 822 335 861 l 335 593 m 196 396 q 192 435 196 422 q 178 447 189 447 l 154 447 l 154 115 l 176 115 q 196 167 196 115 l 196 396 m 179 550 q 193 563 190 550 q 196 601 196 575 l 196 801 q 178 856 196 856 l 154 856 l 154 550 l 179 550 z "},"C":{"ha":350,"x_min":17,"x_max":333,"o":"m 161 -8 q 108 0 133 -8 q 62 26 82 8 q 29 73 42 44 q 17 140 17 101 l 17 831 q 29 898 17 869 q 62 944 42 926 q 108 971 82 963 q 161 979 133 979 l 189 979 q 242 971 215 979 q 288 944 268 963 q 321 898 308 926 q 333 831 333 869 l 333 581 l 196 581 l 196 811 q 192 852 196 840 q 176 864 188 864 l 174 864 q 158 852 163 864 q 154 810 154 840 l 154 161 q 158 119 154 132 q 174 107 163 107 l 176 107 q 192 119 188 107 q 196 161 196 132 l 196 393 l 333 393 l 333 140 q 321 73 333 101 q 288 26 308 44 q 242 0 268 8 q 189 -8 215 -8 l 161 -8 z "},"A":{"ha":351,"x_min":3,"x_max":349,"o":"m 197 244 l 139 244 l 121 0 l 3 0 l 85 971 l 261 971 l 349 0 l 217 0 l 197 244 m 147 347 l 189 347 l 171 594 l 167 594 l 147 347 z "},"±":{"ha":419,"x_min":17,"x_max":403,"o":"m 156 653 l 156 813 l 261 813 l 261 653 l 403 653 l 403 560 l 261 560 l 261 401 l 156 401 l 156 560 l 17 560 l 17 653 l 156 653 m 357 54 l 65 54 l 65 147 l 357 147 l 357 54 z "},"ı":{"ha":156,"x_min":17,"x_max":144,"o":"m 144 688 l 144 0 l 17 0 l 17 688 l 144 688 z "},"·":{"ha":201,"x_min":31,"x_max":171,"o":"m 171 268 l 31 268 l 31 419 l 171 419 l 171 268 z "},"¯":{"ha":303,"x_min":42,"x_max":251,"o":"m 251 821 l 42 821 l 42 914 l 251 914 l 251 821 z "},"E":{"ha":289,"x_min":17,"x_max":281,"o":"m 154 856 l 154 536 l 246 536 l 246 433 l 154 433 l 154 115 l 281 115 l 281 0 l 17 0 l 17 971 l 269 971 l 269 856 l 154 856 z "},"F":{"ha":278,"x_min":17,"x_max":269,"o":"m 154 856 l 154 536 l 246 536 l 246 433 l 154 433 l 154 0 l 17 0 l 17 971 l 269 971 l 269 856 l 154 856 z "},"G":{"ha":350,"x_min":17,"x_max":333,"o":"m 161 -8 q 108 0 133 -8 q 62 26 82 8 q 29 73 42 44 q 17 140 17 101 l 17 831 q 29 898 17 869 q 62 944 42 926 q 108 971 82 963 q 161 979 133 979 l 189 979 q 242 971 215 979 q 288 944 268 963 q 321 898 308 926 q 333 831 333 869 l 333 581 l 196 581 l 196 811 q 192 852 196 840 q 176 864 188 864 l 174 864 q 158 852 163 864 q 154 810 154 840 l 154 161 q 158 119 154 132 q 174 107 163 107 l 176 107 q 192 119 188 107 q 196 161 196 132 l 196 278 l 169 278 l 169 393 l 333 393 l 333 189 l 333 181 l 333 0 l 267 0 l 251 32 q 207 2 229 13 q 167 -8 185 -8 l 161 -8 z "},"¿":{"ha":338,"x_min":17,"x_max":321,"o":"m 321 161 l 321 -89 q 308 -156 321 -128 q 276 -203 296 -185 q 230 -229 256 -221 q 176 -237 204 -237 l 163 -237 q 109 -229 135 -237 q 63 -203 83 -221 q 29 -156 42 -185 q 17 -89 17 -128 l 17 57 q 28 144 17 106 q 54 216 39 182 q 87 284 69 250 q 117 356 104 318 q 133 441 129 394 q 126 549 136 488 l 264 549 q 270 423 274 476 q 254 328 267 369 q 224 254 242 288 q 192 188 207 221 q 165 119 176 156 q 154 35 154 82 l 154 -68 q 158 -111 154 -100 q 174 -122 163 -122 l 176 -122 q 192 -110 188 -122 q 196 -69 196 -99 l 196 161 l 321 161 m 124 742 l 264 742 l 264 590 l 124 590 l 124 742 z "},"¶":{"ha":469,"x_min":17,"x_max":453,"o":"m 350 868 l 281 868 l 281 -229 l 178 -229 l 178 536 q 109 556 139 536 q 58 606 79 575 q 27 675 38 636 q 17 754 17 714 q 27 832 17 793 q 58 901 38 871 q 109 951 79 932 q 178 971 139 971 l 453 971 l 453 -229 l 350 -229 l 350 868 z "},"¬":{"ha":469,"x_min":17,"x_max":453,"o":"m 453 300 l 353 300 l 353 439 l 17 439 l 17 532 l 453 532 l 453 300 z "},"Þ":{"ha":336,"x_min":17,"x_max":321,"o":"m 154 971 l 154 831 l 188 831 q 283 792 246 831 q 321 686 321 753 l 321 279 q 283 174 321 213 q 188 135 246 135 l 154 135 l 154 0 l 17 0 l 17 971 l 154 971 m 154 724 l 154 242 l 175 242 q 190 282 190 242 l 190 683 q 175 724 190 724 l 154 724 z "},"þ":{"ha":331,"x_min":17,"x_max":321,"o":"m 154 971 l 154 692 l 188 692 q 283 653 246 692 q 321 547 321 614 l 321 140 q 283 35 321 74 q 188 -4 246 -4 l 154 -4 l 154 -229 l 17 -229 l 17 971 l 154 971 m 154 585 l 154 103 l 175 103 q 190 143 190 103 l 190 544 q 175 585 190 585 l 154 585 z "},"©":{"ha":697,"x_min":14,"x_max":686,"o":"m 14 483 q 30 672 14 583 q 85 827 46 761 q 190 931 124 893 q 357 969 257 969 q 522 931 457 969 q 622 827 586 893 q 672 672 658 761 q 686 483 686 583 q 672 294 686 383 q 622 140 658 206 q 522 35 586 74 q 357 -3 457 -3 q 190 35 257 -3 q 85 140 124 74 q 30 294 46 206 q 14 483 14 383 m 96 483 q 106 328 96 401 q 143 201 115 256 q 222 116 171 147 q 356 85 274 85 q 487 116 438 85 q 562 201 536 147 q 596 328 588 256 q 604 483 604 401 q 596 638 604 565 q 562 765 588 711 q 487 851 536 819 q 356 882 438 882 q 222 851 274 882 q 143 765 171 819 q 106 638 115 711 q 96 483 96 565 m 372 547 l 372 632 q 358 672 372 672 l 356 672 q 340 632 340 672 l 340 342 q 356 301 340 301 l 358 301 q 372 342 372 301 l 372 429 l 501 429 l 501 340 q 464 233 501 272 q 368 194 426 194 l 342 194 q 248 234 283 194 q 213 340 213 274 l 213 633 q 248 740 213 701 q 342 779 283 779 l 368 779 q 464 740 426 779 q 501 635 501 701 l 501 547 l 372 547 z "},"®":{"ha":435,"x_min":17,"x_max":418,"o":"m 17 731 q 29 827 17 782 q 67 906 42 872 q 130 960 92 940 q 219 979 168 979 q 308 960 271 979 q 370 906 346 940 q 406 827 394 872 q 418 731 418 782 q 406 634 418 679 q 370 555 394 589 q 308 501 346 521 q 219 482 271 482 q 130 501 168 482 q 67 555 92 521 q 29 634 42 589 q 17 731 17 679 m 74 731 q 81 653 74 690 q 106 590 89 617 q 151 547 124 563 q 219 531 179 531 q 288 547 261 531 q 332 590 315 563 q 355 653 349 617 q 361 731 361 690 q 355 808 361 771 q 332 872 349 844 q 288 915 315 899 q 219 931 261 931 q 151 915 179 931 q 106 872 124 899 q 81 808 89 844 q 74 731 74 771 m 296 764 q 291 737 296 749 q 275 719 286 725 q 291 703 286 715 q 296 675 296 690 l 296 601 l 235 601 l 235 658 q 224 685 235 685 l 213 685 l 213 601 l 151 601 l 151 879 l 239 879 q 283 855 271 879 q 296 794 296 831 l 296 764 m 224 747 q 235 775 235 747 l 235 790 q 233 810 235 804 q 222 817 231 817 l 213 817 l 213 747 l 224 747 z "},"ƒ":{"ha":333,"x_min":17,"x_max":317,"o":"m 19 688 l 103 688 l 103 836 q 115 899 103 869 q 154 949 128 929 q 221 977 181 969 q 317 972 261 985 l 317 871 q 294 870 308 871 q 265 865 279 869 q 241 852 251 861 q 231 826 231 843 l 231 688 l 314 688 l 314 581 l 231 581 l 231 -94 q 218 -158 231 -128 q 179 -208 206 -187 q 113 -235 153 -228 q 17 -231 72 -243 l 17 -129 q 40 -128 25 -129 q 68 -124 54 -128 q 92 -110 82 -119 q 103 -85 103 -101 l 103 581 l 19 581 l 19 688 z "},"Œ":{"ha":492,"x_min":17,"x_max":475,"o":"m 161 -8 q 108 0 133 -8 q 62 26 82 8 q 29 73 42 44 q 17 140 17 101 l 17 831 q 29 898 17 869 q 62 944 42 926 q 108 971 82 963 q 161 979 133 979 l 189 979 l 200 979 l 464 979 l 464 856 l 332 856 q 333 843 332 849 q 333 831 333 838 l 333 536 l 440 536 l 440 433 l 333 433 l 333 140 q 333 128 333 133 q 332 115 332 122 l 475 115 l 475 -8 l 200 -8 l 189 -8 l 161 -8 m 174 864 q 154 810 154 864 l 154 161 q 158 119 154 132 q 174 107 163 107 l 176 107 q 192 119 188 107 q 196 161 196 132 l 196 810 q 176 864 196 864 l 174 864 z "},"œ":{"ha":474,"x_min":14,"x_max":463,"o":"m 143 -4 q 49 35 85 -4 q 14 140 14 74 l 14 547 q 49 653 14 614 q 143 692 85 692 l 169 692 q 236 674 204 692 q 304 692 268 692 l 331 692 q 426 653 389 692 q 463 547 463 614 l 463 311 l 303 311 l 303 143 q 317 103 303 103 l 321 103 q 335 143 335 103 l 335 286 l 463 286 l 463 142 q 426 35 463 74 q 331 -4 389 -4 l 304 -4 q 238 13 264 -4 q 169 -4 208 -4 l 143 -4 m 157 585 q 142 544 142 585 l 142 143 q 157 103 142 103 l 160 103 q 174 142 174 103 l 174 544 l 174 546 l 174 553 q 160 585 171 585 l 157 585 m 303 547 l 303 399 l 335 399 l 335 544 q 321 585 335 585 l 318 585 q 303 553 303 585 l 303 547 z "},"€":{"ha":393,"x_min":17,"x_max":376,"o":"m 267 410 l 196 410 l 196 161 q 200 119 196 132 q 215 107 204 107 l 219 107 q 235 119 231 107 q 239 161 239 132 l 239 393 l 376 393 l 376 140 q 364 73 376 101 q 331 26 351 44 q 283 0 310 8 q 231 -8 257 -8 l 204 -8 q 151 0 176 -8 q 104 26 125 8 q 71 73 83 44 q 58 140 58 101 l 58 410 l 17 410 l 17 467 l 58 467 l 58 507 l 17 507 l 17 564 l 58 564 l 58 831 q 71 898 58 869 q 104 944 83 926 q 151 971 125 963 q 204 979 176 979 l 231 979 q 283 971 257 979 q 331 944 310 963 q 364 898 351 926 q 376 831 376 869 l 376 581 l 239 581 l 239 811 q 235 852 239 840 q 219 864 231 864 l 215 864 q 200 852 204 864 q 196 810 196 840 l 196 564 l 267 564 l 267 507 l 196 507 l 196 467 l 267 467 l 267 410 z "},"™":{"ha":435,"x_min":29,"x_max":404,"o":"m 175 907 l 139 907 l 139 544 l 64 544 l 64 907 l 29 907 l 29 971 l 175 971 l 175 907 m 404 971 l 404 544 l 349 544 l 349 778 l 347 778 l 325 544 l 279 544 l 257 778 l 256 778 l 256 544 l 197 544 l 197 971 l 289 971 l 304 738 l 306 738 l 321 971 l 404 971 z "},"¢":{"ha":313,"x_min":14,"x_max":303,"o":"m 174 404 l 174 544 q 160 585 174 585 l 157 585 q 142 544 142 585 l 142 143 q 157 103 142 103 l 160 103 q 174 143 174 103 l 174 286 l 303 286 l 303 142 q 276 47 303 83 q 204 0 249 10 l 204 -87 l 114 -87 l 114 -1 q 41 46 68 8 q 14 142 14 83 l 14 546 q 42 642 14 604 q 115 689 69 679 l 115 775 l 206 775 l 206 688 q 276 640 250 676 q 303 547 303 603 l 303 404 l 174 404 z "},"µ":{"ha":317,"x_min":11,"x_max":303,"o":"m 303 0 l 175 0 l 175 29 q 139 4 154 11 l 139 -228 l 11 -228 l 11 688 l 139 688 l 139 143 q 153 103 139 103 l 156 103 q 175 144 175 103 l 175 688 l 303 688 l 303 0 z "},"Æ":{"ha":490,"x_min":3,"x_max":482,"o":"m 356 856 l 356 536 l 447 536 l 447 433 l 356 433 l 356 115 l 482 115 l 482 0 l 217 0 l 217 244 l 135 244 l 121 0 l 3 0 l 85 971 l 471 971 l 471 856 l 356 856 m 142 347 l 217 347 l 217 856 l 172 856 l 142 347 z "},"æ":{"ha":474,"x_min":14,"x_max":463,"o":"m 94 -4 q 49 6 65 -4 q 26 35 33 17 q 16 81 18 54 q 14 140 14 107 l 14 240 q 17 300 14 274 q 30 345 21 326 q 56 374 39 364 q 103 385 74 385 l 107 385 q 174 360 138 385 l 174 544 l 174 546 l 174 553 q 169 576 172 568 q 158 585 167 585 l 156 585 q 142 544 142 585 l 142 404 l 14 404 l 14 547 q 51 653 14 614 q 146 692 88 692 l 172 692 q 238 675 210 692 q 304 692 267 692 l 331 692 q 426 653 389 692 q 463 547 463 614 l 463 311 l 303 311 l 303 143 q 317 103 303 103 l 321 103 q 335 143 335 103 l 335 286 l 463 286 l 463 142 q 426 35 463 74 q 331 -4 389 -4 l 304 -4 q 203 44 236 -4 q 151 9 178 22 q 99 -4 124 -4 l 94 -4 m 156 290 q 142 250 142 290 l 142 131 q 156 90 142 90 l 158 90 q 174 131 174 90 l 174 135 l 174 142 l 174 281 q 167 290 174 290 l 156 290 m 303 399 l 335 399 l 335 544 q 321 585 335 585 l 318 585 q 303 546 303 585 l 303 399 z "},"÷":{"ha":496,"x_min":14,"x_max":482,"o":"m 482 439 l 14 439 l 14 532 l 482 532 l 482 439 m 318 575 l 178 575 l 178 726 l 318 726 l 318 575 m 318 243 l 178 243 l 178 394 l 318 394 l 318 243 z "},"¤":{"ha":503,"x_min":17,"x_max":488,"o":"m 363 301 q 251 269 314 269 q 139 301 190 269 l 85 247 l 17 315 l 71 369 q 39 482 39 421 q 71 593 39 544 l 17 649 l 85 717 l 139 661 q 251 694 192 694 q 310 685 282 694 q 363 661 339 676 l 419 718 l 488 650 l 431 593 q 455 541 446 569 q 464 482 464 513 q 431 369 464 422 l 488 314 l 419 246 l 363 301 m 142 482 q 172 403 142 433 q 251 372 203 372 q 331 403 300 372 q 361 482 361 433 q 331 561 361 531 q 251 592 300 592 q 172 561 203 592 q 142 482 142 531 z "},"£":{"ha":429,"x_min":17,"x_max":414,"o":"m 17 450 l 96 450 l 96 831 q 108 897 96 869 q 141 943 121 925 q 188 970 161 961 q 242 979 214 979 l 268 979 q 321 971 294 979 q 368 944 347 963 q 401 898 389 926 q 414 831 414 869 l 414 581 l 275 581 l 275 811 q 272 852 275 840 q 257 864 268 864 l 253 864 q 238 852 242 864 q 233 810 233 840 l 233 450 l 414 450 l 414 332 l 233 332 l 233 300 q 225 176 233 218 q 206 118 217 135 l 414 118 l 414 0 l 67 0 l 67 118 l 68 118 q 89 174 82 135 q 96 299 96 213 l 96 332 l 17 332 l 17 450 z "},"¥":{"ha":358,"x_min":3,"x_max":354,"o":"m 110 272 l 110 322 l 17 322 l 17 415 l 97 415 l 3 971 l 142 971 l 176 660 l 182 660 l 217 971 l 354 971 l 260 415 l 333 415 l 333 322 l 249 322 l 249 272 l 333 272 l 333 179 l 247 179 l 247 0 l 110 0 l 110 179 l 17 179 l 17 272 l 110 272 z "},"Ł":{"ha":372,"x_min":3,"x_max":367,"o":"m 242 971 l 242 633 l 318 689 l 367 607 l 242 517 l 242 103 l 354 103 l 354 0 l 104 0 l 104 418 l 53 382 l 3 464 l 104 536 l 104 971 l 242 971 z "},"ł":{"ha":350,"x_min":3,"x_max":347,"o":"m 94 363 l 53 333 l 3 415 l 94 481 l 94 971 l 224 971 l 224 575 l 299 629 l 347 546 l 224 456 l 224 0 l 94 0 l 94 363 z "},"Đ":{"ha":371,"x_min":17,"x_max":356,"o":"m 38 0 l 38 439 l 17 439 l 17 533 l 38 533 l 38 971 l 210 971 q 263 963 236 971 q 310 936 289 954 q 343 890 331 918 q 356 824 356 863 l 356 147 q 343 81 356 108 q 310 35 331 53 q 263 8 289 17 q 210 0 236 0 l 38 0 m 175 856 l 175 533 l 196 533 l 196 439 l 175 439 l 175 115 l 199 115 q 213 128 210 115 q 217 169 217 140 l 217 801 q 199 856 217 856 l 175 856 z "},"×":{"ha":371,"x_min":3,"x_max":368,"o":"m 111 486 l 3 594 l 78 668 l 185 560 l 293 668 l 368 594 l 260 486 l 368 378 l 293 304 l 185 411 l 78 304 l 3 378 l 111 486 z "},"¦":{"ha":186,"x_min":29,"x_max":157,"o":"m 29 407 l 157 407 l 157 -42 l 29 -42 l 29 407 m 29 1013 l 157 1013 l 157 567 l 29 567 l 29 1013 z "},"§":{"ha":313,"x_min":14,"x_max":303,"o":"m 174 626 l 174 832 q 171 860 174 849 q 158 872 168 872 l 156 872 q 145 860 149 872 q 142 832 142 849 l 142 700 q 167 628 142 657 q 222 570 192 599 q 278 506 253 542 q 303 417 303 471 l 303 346 q 283 264 303 297 q 228 214 263 231 q 280 153 257 186 q 303 67 303 119 l 303 -93 q 265 -199 303 -160 q 169 -237 228 -237 l 146 -237 q 50 -199 86 -237 q 14 -93 14 -160 l 14 132 l 129 132 l 129 -90 q 133 -120 129 -110 q 150 -131 138 -131 l 153 -131 q 170 -120 167 -131 q 174 -90 174 -110 l 174 58 q 149 131 174 101 q 94 188 124 160 q 39 251 64 217 q 14 342 14 286 l 14 415 q 33 495 14 461 q 85 544 51 529 q 35 606 57 572 q 14 692 14 639 l 14 836 q 50 940 14 900 q 144 979 86 979 l 157 979 q 253 940 217 979 q 290 836 290 901 l 290 626 l 174 626 m 174 411 q 165 449 171 433 q 158 451 163 451 l 156 451 q 145 440 149 451 q 142 411 142 428 l 142 351 q 150 308 142 326 l 153 308 q 168 316 164 308 q 174 338 172 324 l 174 411 z "},"²":{"ha":169,"x_min":14,"x_max":156,"o":"m 14 801 l 14 913 q 33 963 14 947 q 76 979 53 979 l 85 979 q 129 963 108 979 q 150 913 150 947 l 150 847 q 138 791 150 815 q 113 740 126 767 q 87 679 99 713 q 75 596 75 646 l 156 596 l 156 544 l 14 544 l 14 596 q 26 690 14 654 q 51 753 38 726 q 76 802 64 779 q 88 857 88 825 l 88 904 q 79 928 88 928 l 78 928 q 69 904 69 928 l 69 801 l 14 801 z "},"³":{"ha":168,"x_min":14,"x_max":154,"o":"m 79 789 q 93 819 93 789 l 93 904 q 83 928 93 928 l 82 928 q 74 906 74 928 l 74 803 l 14 803 l 14 914 q 34 963 14 947 q 78 979 54 979 l 89 979 q 133 963 113 979 q 154 914 154 947 l 154 826 q 141 785 154 799 q 108 768 128 771 q 141 753 128 765 q 154 714 154 742 l 154 610 q 133 560 154 575 q 89 544 113 544 l 78 544 q 34 560 54 544 q 14 610 14 575 l 14 721 l 74 721 l 74 618 q 82 596 74 596 l 85 596 q 93 619 93 596 l 93 717 q 79 746 93 746 l 61 746 l 61 789 l 79 789 z "},"¹":{"ha":131,"x_min":11,"x_max":114,"o":"m 53 544 l 53 879 q 33 877 44 878 q 11 876 21 876 l 11 924 q 47 938 31 924 q 63 971 63 951 l 114 971 l 114 544 l 53 544 z "},"ª":{"ha":206,"x_min":14,"x_max":194,"o":"m 64 544 q 21 569 28 544 q 14 635 14 594 l 14 697 q 24 763 14 738 q 71 789 33 789 l 72 789 q 92 785 82 789 q 113 774 101 781 l 113 886 q 103 914 113 914 l 101 914 q 94 886 94 914 l 94 799 l 14 799 l 14 889 q 37 955 14 931 q 97 979 60 979 l 111 979 q 172 955 149 979 q 194 886 194 931 l 194 549 l 113 549 l 113 560 q 67 544 89 544 l 64 544 m 101 729 q 94 703 94 729 l 94 628 q 103 604 94 604 q 113 628 113 604 l 113 725 q 107 729 108 729 l 101 729 z "},"º":{"ha":172,"x_min":17,"x_max":157,"o":"m 81 544 q 37 560 57 544 q 17 611 17 575 l 17 913 q 37 963 17 947 q 81 979 57 979 l 92 979 q 137 963 117 979 q 157 913 157 947 l 157 611 q 137 560 157 575 q 92 544 117 544 l 81 544 m 86 928 q 78 904 78 928 l 78 619 q 86 596 78 596 q 94 619 94 596 l 94 904 q 86 928 94 928 z "},"¼":{"ha":399,"x_min":21,"x_max":376,"o":"m 310 971 l 375 971 l 93 0 l 28 0 l 310 971 m 376 106 l 376 56 l 353 56 l 353 0 l 301 0 l 301 56 l 217 56 l 217 106 l 281 424 l 353 424 l 353 106 l 376 106 m 63 544 l 63 879 q 42 877 54 878 q 21 876 31 876 l 21 924 q 56 938 40 924 q 72 971 72 951 l 124 971 l 124 544 l 63 544 m 301 256 l 300 256 l 275 107 l 275 106 l 301 106 l 301 256 z "},"½":{"ha":414,"x_min":21,"x_max":394,"o":"m 310 971 l 375 971 l 93 0 l 28 0 l 310 971 m 63 544 l 63 879 q 42 877 54 878 q 21 876 31 876 l 21 924 q 56 938 40 924 q 72 971 72 951 l 124 971 l 124 544 l 63 544 m 253 257 l 253 368 q 273 419 253 403 q 317 435 293 435 l 325 435 q 369 419 349 435 q 389 368 389 403 l 389 303 q 377 247 389 271 q 352 195 365 222 q 327 135 339 168 q 315 51 315 101 l 394 51 l 394 0 l 253 0 l 253 51 q 265 146 253 110 q 290 208 276 182 q 316 258 304 235 q 328 313 328 281 l 328 360 q 319 383 328 383 l 317 383 q 308 360 308 383 l 308 257 l 253 257 z "},"¾":{"ha":411,"x_min":21,"x_max":392,"o":"m 310 971 l 375 971 l 93 0 l 28 0 l 310 971 m 317 240 q 328 249 326 240 q 331 269 331 257 l 331 358 q 329 378 331 374 q 322 382 328 382 l 321 382 q 314 378 315 382 q 313 360 313 374 l 313 254 l 251 254 l 251 369 q 272 418 251 403 q 315 433 292 433 l 328 433 q 372 418 351 433 q 392 369 392 403 l 392 278 q 378 236 392 250 q 346 219 365 222 q 378 205 365 217 q 392 165 392 193 l 392 57 q 372 7 392 22 q 328 -8 351 -8 l 315 -8 q 272 7 292 -8 q 251 57 251 22 l 251 172 l 313 172 l 313 65 q 321 43 313 43 l 322 43 q 331 67 331 43 l 331 168 q 328 189 331 181 q 317 197 326 197 l 299 197 l 299 240 l 317 240 m 63 544 l 63 879 q 42 877 54 878 q 21 876 31 876 l 21 924 q 56 938 40 924 q 72 971 72 951 l 124 971 l 124 544 l 63 544 z "},"ß":{"ha":388,"x_min":17,"x_max":372,"o":"m 372 632 q 342 539 372 569 q 269 500 311 508 q 309 490 290 497 q 342 468 328 482 q 364 432 356 454 q 372 379 372 410 l 372 149 q 360 81 372 110 q 326 35 347 53 q 279 8 306 17 q 226 0 253 0 l 182 0 l 182 115 l 203 115 q 224 126 214 115 q 233 169 233 138 l 233 383 q 228 431 233 413 q 203 450 222 450 l 182 450 l 182 549 l 203 549 q 228 567 222 549 q 233 615 233 586 l 233 810 q 224 852 233 840 q 203 864 214 864 l 186 864 q 165 852 175 864 q 154 811 154 840 l 154 0 l 17 0 l 17 831 q 31 898 17 869 q 69 944 46 926 q 119 971 92 963 q 175 979 147 979 l 214 979 q 269 971 240 979 q 320 944 297 963 q 358 898 343 926 q 372 831 372 869 l 372 632 l 372 632 z "},"Ø":{"ha":465,"x_min":17,"x_max":449,"o":"m 218 -8 q 160 1 188 -8 q 111 33 132 11 l 94 -14 l 17 -14 l 74 146 l 74 831 q 86 898 74 869 q 119 944 99 926 q 165 971 139 963 q 218 979 190 979 l 246 979 q 304 969 276 979 q 353 935 332 958 l 371 985 l 449 985 l 390 819 l 390 140 q 378 73 390 101 q 345 26 365 44 q 299 0 325 8 q 246 -8 272 -8 l 218 -8 m 231 864 q 211 810 211 864 l 211 533 l 253 651 l 253 810 q 233 864 253 864 l 231 864 m 231 107 l 233 107 q 249 119 244 107 q 253 161 253 132 l 253 433 l 211 315 l 211 161 q 215 119 211 132 q 231 107 219 107 z "},"ø":{"ha":383,"x_min":14,"x_max":369,"o":"m 182 -4 q 106 18 139 -4 l 92 -18 l 14 -18 l 57 94 q 51 140 51 113 l 51 547 q 88 653 51 614 q 182 692 124 692 l 208 692 q 278 671 246 692 l 292 706 l 369 706 l 331 606 q 340 547 340 581 l 340 140 q 303 35 340 74 q 208 -4 267 -4 l 182 -4 m 196 103 l 197 103 q 213 143 213 103 l 213 297 l 179 210 l 179 143 q 196 103 179 103 m 196 585 q 179 544 179 585 l 179 413 l 213 499 l 213 544 q 197 585 213 585 l 196 585 z "},"₹":{"ha":469,"x_min":17,"x_max":453,"o":"m 17 761 l 254 761 l 254 799 q 242 851 254 839 q 201 864 229 864 l 17 864 l 17 971 l 253 971 l 258 971 l 453 971 l 453 864 l 378 864 q 382 825 382 844 l 382 761 l 453 761 l 453 656 l 382 656 l 382 590 q 371 530 382 557 q 340 484 360 503 q 295 455 321 465 q 240 444 269 444 l 189 444 l 404 0 l 251 0 l 26 463 l 26 539 l 189 539 q 240 556 226 539 q 254 604 254 572 l 254 656 l 17 656 l 17 761 z "},"₦":{"ha":517,"x_min":17,"x_max":500,"o":"m 500 625 l 500 532 l 450 532 l 450 444 l 500 444 l 500 351 l 450 351 l 450 0 l 297 0 l 235 351 l 199 351 l 199 0 l 83 0 l 83 351 l 17 351 l 17 444 l 83 444 l 83 532 l 17 532 l 17 625 l 83 625 l 83 971 l 236 971 l 293 625 l 324 625 l 324 971 l 450 971 l 450 625 l 500 625 m 199 444 l 218 444 l 203 532 l 199 532 l 199 444 m 322 449 l 324 449 l 324 532 l 308 532 l 322 449 z "},"₧":{"ha":433,"x_min":17,"x_max":417,"o":"m 236 971 q 340 932 299 971 q 381 824 381 893 l 381 736 l 417 736 l 417 643 l 381 643 l 381 508 q 340 413 381 440 q 238 385 300 385 l 201 385 l 201 0 l 63 0 l 63 643 l 17 643 l 17 736 l 63 736 l 63 971 l 236 971 m 243 643 l 201 643 l 201 500 l 224 500 q 240 513 236 500 q 243 553 243 525 l 243 643 m 201 736 l 243 736 l 243 803 q 239 843 243 831 q 222 856 235 856 l 201 856 l 201 736 z "},"₩":{"ha":636,"x_min":17,"x_max":619,"o":"m 100 432 l 92 544 l 17 544 l 17 638 l 85 638 l 61 971 l 193 971 l 214 638 l 240 638 l 269 971 l 378 971 l 408 638 l 436 638 l 458 971 l 579 971 l 554 638 l 619 638 l 619 544 l 547 544 l 539 432 l 619 432 l 619 339 l 532 339 l 507 0 l 374 0 l 333 339 l 315 339 l 282 0 l 132 0 l 107 339 l 17 339 l 17 432 l 100 432 m 228 485 l 232 544 l 219 544 l 224 485 l 228 485 m 426 485 l 431 544 l 418 544 l 424 485 l 426 485 z "},"₣":{"ha":332,"x_min":17,"x_max":315,"o":"m 200 856 l 200 536 l 292 536 l 292 433 l 200 433 l 200 299 l 244 299 l 244 206 l 200 206 l 200 0 l 61 0 l 61 206 l 17 206 l 17 299 l 61 299 l 61 971 l 315 971 l 315 856 l 200 856 z "},"đ":{"ha":367,"x_min":14,"x_max":356,"o":"m 303 0 l 199 0 l 186 33 q 111 -4 149 -4 l 107 -4 q 32 35 50 -4 q 14 140 14 75 l 14 547 q 17 607 14 581 q 30 652 21 633 q 56 681 39 671 q 103 692 74 692 l 107 692 q 174 661 140 692 l 174 807 l 124 807 l 124 900 l 174 900 l 174 971 l 303 971 l 303 900 l 356 900 l 356 807 l 303 807 l 303 0 m 157 585 q 142 544 142 585 l 142 143 q 156 103 142 103 l 158 103 q 174 144 174 103 l 174 543 q 158 585 174 585 l 157 585 z "},"Ã":{"ha":351,"x_min":3,"x_max":349,"o":"m 217 0 l 349 0 l 261 971 l 85 971 l 3 0 l 121 0 l 139 244 l 197 244 l 217 0 m 43 1076 q 78 1122 58 1108 q 117 1136 99 1136 q 163 1124 142 1136 q 210 1113 183 1113 q 226 1117 218 1113 q 244 1132 233 1121 l 307 1093 q 267 1047 288 1058 q 228 1035 247 1035 q 181 1046 201 1035 q 142 1057 161 1057 q 121 1053 131 1057 q 100 1039 111 1050 l 43 1076 m 167 594 l 171 594 l 189 347 l 147 347 l 167 594 z "},"Â":{"ha":351,"x_min":3,"x_max":349,"o":"m 197 244 l 139 244 l 121 0 l 3 0 l 85 971 l 261 971 l 349 0 l 217 0 l 197 244 m 236 1143 l 321 1024 l 201 1024 l 175 1076 l 149 1024 l 28 1024 l 113 1143 l 236 1143 m 147 347 l 189 347 l 171 594 l 167 594 l 147 347 z "},"Á":{"ha":351,"x_min":3,"x_max":349,"o":"m 197 244 l 139 244 l 121 0 l 3 0 l 85 971 l 261 971 l 349 0 l 217 0 l 197 244 m 131 1024 l 178 1143 l 299 1143 l 214 1024 l 131 1024 m 147 347 l 189 347 l 171 594 l 167 594 l 147 347 z "},"À":{"ha":351,"x_min":3,"x_max":349,"o":"m 217 0 l 349 0 l 261 971 l 85 971 l 3 0 l 121 0 l 139 244 l 197 244 l 217 0 m 135 1024 l 50 1143 l 171 1143 l 218 1024 l 135 1024 m 167 594 l 171 594 l 189 347 l 147 347 l 167 594 z "},"Ä":{"ha":351,"x_min":3,"x_max":349,"o":"m 217 0 l 349 0 l 261 971 l 85 971 l 3 0 l 121 0 l 139 244 l 197 244 l 217 0 m 150 1033 l 60 1033 l 60 1136 l 150 1136 l 150 1033 m 289 1033 l 199 1033 l 199 1136 l 289 1136 l 289 1033 m 167 594 l 171 594 l 189 347 l 147 347 l 167 594 z "},"Å":{"ha":351,"x_min":3,"x_max":349,"o":"m 217 0 l 349 0 l 261 971 l 85 971 l 3 0 l 121 0 l 139 244 l 197 244 l 217 0 m 174 1007 q 138 1015 156 1007 q 108 1035 121 1022 q 86 1065 94 1049 q 78 1101 78 1082 q 106 1172 78 1142 q 172 1201 135 1201 q 243 1172 213 1201 q 274 1101 274 1142 q 244 1035 274 1064 q 174 1007 215 1007 m 167 594 l 171 594 l 189 347 l 147 347 l 167 594 m 174 1131 q 156 1122 164 1131 q 147 1103 147 1114 q 156 1084 147 1093 q 174 1075 164 1075 q 193 1084 185 1075 q 201 1103 201 1093 q 193 1122 201 1114 q 174 1131 185 1131 z "},"Ç":{"ha":350,"x_min":17,"x_max":333,"o":"m 85 -158 l 99 -96 q 127 -108 111 -104 q 156 -110 143 -111 q 178 -101 169 -108 q 185 -82 186 -94 q 166 -67 182 -69 q 135 -74 150 -64 l 108 -64 l 139 -8 l 150 -8 q 100 3 124 -7 q 58 31 76 13 q 28 76 39 49 q 17 140 17 103 l 17 831 q 29 898 17 869 q 62 944 42 926 q 108 971 82 963 q 161 979 133 979 l 189 979 q 242 971 215 979 q 288 944 268 963 q 321 898 308 926 q 333 831 333 869 l 333 581 l 196 581 l 196 811 q 192 852 196 840 q 176 864 188 864 l 174 864 q 158 852 163 864 q 154 810 154 840 l 154 161 q 158 119 154 132 q 174 107 163 107 l 176 107 q 192 119 188 107 q 196 161 196 132 l 196 393 l 333 393 l 333 140 q 322 76 333 103 q 292 31 311 49 q 249 3 274 13 q 200 -8 225 -7 l 214 -8 l 201 -40 q 253 -39 229 -28 q 276 -81 276 -50 q 253 -144 276 -121 q 197 -174 229 -167 q 133 -177 165 -182 q 85 -158 101 -172 z "},"Ê":{"ha":289,"x_min":3,"x_max":296,"o":"m 154 856 l 154 536 l 246 536 l 246 433 l 154 433 l 154 115 l 281 115 l 281 0 l 17 0 l 17 971 l 269 971 l 269 856 l 154 856 m 211 1143 l 296 1024 l 176 1024 l 150 1076 l 124 1024 l 3 1024 l 88 1143 l 211 1143 z "},"É":{"ha":289,"x_min":17,"x_max":281,"o":"m 154 856 l 154 536 l 246 536 l 246 433 l 154 433 l 154 115 l 281 115 l 281 0 l 17 0 l 17 971 l 269 971 l 269 856 l 154 856 m 106 1024 l 153 1143 l 274 1143 l 189 1024 l 106 1024 z "},"È":{"ha":289,"x_min":17,"x_max":281,"o":"m 269 856 l 269 971 l 17 971 l 17 0 l 281 0 l 281 115 l 154 115 l 154 433 l 246 433 l 246 536 l 154 536 l 154 856 l 269 856 m 110 1024 l 25 1143 l 146 1143 l 193 1024 l 110 1024 z "},"Ë":{"ha":289,"x_min":17,"x_max":281,"o":"m 269 856 l 269 971 l 17 971 l 17 0 l 281 0 l 281 115 l 154 115 l 154 433 l 246 433 l 246 536 l 154 536 l 154 856 l 269 856 m 125 1033 l 35 1033 l 35 1136 l 125 1136 l 125 1033 m 264 1033 l 174 1033 l 174 1136 l 264 1136 l 264 1033 z "},"Î":{"ha":171,"x_min":-61,"x_max":233,"o":"m 154 971 l 154 0 l 17 0 l 17 971 l 154 971 m 149 1144 l 233 1025 l 113 1025 l 86 1078 l 60 1025 l -61 1025 l 24 1144 l 149 1144 z "},"Í":{"ha":171,"x_min":17,"x_max":211,"o":"m 154 971 l 154 0 l 17 0 l 17 971 l 154 971 m 43 1025 l 90 1144 l 211 1144 l 126 1025 l 43 1025 z "},"Ì":{"ha":171,"x_min":-39,"x_max":154,"o":"m 17 971 l 17 0 l 154 0 l 154 971 l 17 971 m 46 1025 l -39 1144 l 82 1144 l 129 1025 l 46 1025 z "},"Ï":{"ha":171,"x_min":-28,"x_max":201,"o":"m 17 971 l 17 0 l 154 0 l 154 971 l 17 971 m 63 1036 l -28 1036 l -28 1138 l 63 1138 l 63 1036 m 201 1036 l 110 1036 l 110 1138 l 201 1138 l 201 1036 z "},"Ñ":{"ha":397,"x_min":15,"x_max":382,"o":"m 229 0 l 133 539 l 131 539 l 131 0 l 15 0 l 15 971 l 169 971 l 256 449 l 257 449 l 257 971 l 382 971 l 382 0 l 229 0 m 68 1076 q 105 1122 85 1108 q 142 1136 125 1136 q 188 1124 167 1136 q 235 1113 210 1113 q 252 1117 244 1113 q 271 1132 260 1121 l 332 1093 q 293 1047 313 1058 q 254 1035 274 1035 q 207 1046 226 1035 q 167 1057 188 1057 q 147 1053 157 1057 q 125 1039 138 1050 l 68 1076 z "},"Õ":{"ha":350,"x_min":17,"x_max":333,"o":"m 161 -8 q 108 0 133 -8 q 62 26 82 8 q 29 73 42 44 q 17 140 17 101 l 17 831 q 29 898 17 869 q 62 944 42 926 q 108 971 82 963 q 161 979 133 979 l 189 979 q 242 971 215 979 q 288 944 268 963 q 321 898 308 926 q 333 831 333 869 l 333 140 q 321 73 333 101 q 288 26 308 44 q 242 0 268 8 q 189 -8 215 -8 l 161 -8 m 174 864 q 154 810 154 864 l 154 161 q 158 119 154 132 q 174 107 163 107 l 176 107 q 192 119 188 107 q 196 161 196 132 l 196 810 q 176 864 196 864 l 174 864 m 44 1076 q 80 1122 60 1108 q 117 1136 100 1136 q 164 1124 143 1136 q 211 1113 185 1113 q 227 1117 219 1113 q 246 1132 235 1121 l 307 1093 q 269 1047 289 1058 q 229 1035 249 1035 q 183 1046 203 1035 q 142 1057 163 1057 q 122 1053 132 1057 q 100 1039 113 1050 l 44 1076 z "},"Ô":{"ha":350,"x_min":17,"x_max":333,"o":"m 161 -8 q 108 0 133 -8 q 62 26 82 8 q 29 73 42 44 q 17 140 17 101 l 17 831 q 29 898 17 869 q 62 944 42 926 q 108 971 82 963 q 161 979 133 979 l 189 979 q 242 971 215 979 q 288 944 268 963 q 321 898 308 926 q 333 831 333 869 l 333 140 q 321 73 333 101 q 288 26 308 44 q 242 0 268 8 q 189 -8 215 -8 l 161 -8 m 174 864 q 154 810 154 864 l 154 161 q 158 119 154 132 q 174 107 163 107 l 176 107 q 192 119 188 107 q 196 161 196 132 l 196 810 q 176 864 196 864 l 174 864 m 238 1143 l 322 1024 l 201 1024 l 175 1075 l 150 1024 l 29 1024 l 114 1143 l 238 1143 z "},"Ó":{"ha":350,"x_min":17,"x_max":333,"o":"m 161 -8 q 108 0 133 -8 q 62 26 82 8 q 29 73 42 44 q 17 140 17 101 l 17 831 q 29 898 17 869 q 62 944 42 926 q 108 971 82 963 q 161 979 133 979 l 189 979 q 242 971 215 979 q 288 944 268 963 q 321 898 308 926 q 333 831 333 869 l 333 140 q 321 73 333 101 q 288 26 308 44 q 242 0 268 8 q 189 -8 215 -8 l 161 -8 m 174 864 q 154 810 154 864 l 154 161 q 158 119 154 132 q 174 107 163 107 l 176 107 q 192 119 188 107 q 196 161 196 132 l 196 810 q 176 864 196 864 l 174 864 m 132 1024 l 179 1143 l 300 1143 l 215 1024 l 132 1024 z "},"Ò":{"ha":350,"x_min":17,"x_max":333,"o":"m 161 -8 q 108 0 133 -8 q 62 26 82 8 q 29 73 42 44 q 17 140 17 101 l 17 831 q 29 898 17 869 q 62 944 42 926 q 108 971 82 963 q 161 979 133 979 l 189 979 q 242 971 215 979 q 288 944 268 963 q 321 898 308 926 q 333 831 333 869 l 333 140 q 321 73 333 101 q 288 26 308 44 q 242 0 268 8 q 189 -8 215 -8 l 161 -8 m 174 864 q 154 810 154 864 l 154 161 q 158 119 154 132 q 174 107 163 107 l 176 107 q 192 119 188 107 q 196 161 196 132 l 196 810 q 176 864 196 864 l 174 864 m 136 1024 l 51 1143 l 172 1143 l 219 1024 l 136 1024 z "},"Ö":{"ha":350,"x_min":17,"x_max":333,"o":"m 161 -8 q 108 0 133 -8 q 62 26 82 8 q 29 73 42 44 q 17 140 17 101 l 17 831 q 29 898 17 869 q 62 944 42 926 q 108 971 82 963 q 161 979 133 979 l 189 979 q 242 971 215 979 q 288 944 268 963 q 321 898 308 926 q 333 831 333 869 l 333 140 q 321 73 333 101 q 288 26 308 44 q 242 0 268 8 q 189 -8 215 -8 l 161 -8 m 174 864 q 154 810 154 864 l 154 161 q 158 119 154 132 q 174 107 163 107 l 176 107 q 192 119 188 107 q 196 161 196 132 l 196 810 q 176 864 196 864 l 174 864 m 151 1033 l 61 1033 l 61 1136 l 151 1136 l 151 1033 m 290 1033 l 200 1033 l 200 1136 l 290 1136 l 290 1033 z "},"Û":{"ha":350,"x_min":17,"x_max":335,"o":"m 163 -8 q 110 0 136 -8 q 63 26 83 8 q 29 73 42 44 q 17 140 17 101 l 17 971 l 154 971 l 154 161 q 158 119 154 132 q 174 107 163 107 l 178 107 q 192 119 189 107 q 196 161 196 132 l 196 971 l 335 971 l 335 140 q 322 73 335 101 q 290 26 310 44 q 243 0 269 8 q 189 -8 217 -8 l 163 -8 m 239 1143 l 324 1024 l 203 1024 l 176 1076 l 150 1024 l 29 1024 l 114 1143 l 239 1143 z "},"Ú":{"ha":350,"x_min":17,"x_max":335,"o":"m 163 -8 q 110 0 136 -8 q 63 26 83 8 q 29 73 42 44 q 17 140 17 101 l 17 971 l 154 971 l 154 161 q 158 119 154 132 q 174 107 163 107 l 178 107 q 192 119 189 107 q 196 161 196 132 l 196 971 l 335 971 l 335 140 q 322 73 335 101 q 290 26 310 44 q 243 0 269 8 q 189 -8 217 -8 l 163 -8 m 132 1024 l 179 1143 l 300 1143 l 215 1024 l 132 1024 z "},"Ù":{"ha":350,"x_min":17,"x_max":335,"o":"m 163 -8 q 110 0 136 -8 q 63 26 83 8 q 29 73 42 44 q 17 140 17 101 l 17 971 l 154 971 l 154 161 q 158 119 154 132 q 174 107 163 107 l 178 107 q 192 119 189 107 q 196 161 196 132 l 196 971 l 335 971 l 335 140 q 322 73 335 101 q 290 26 310 44 q 243 0 269 8 q 189 -8 217 -8 l 163 -8 m 136 1024 l 51 1143 l 172 1143 l 219 1024 l 136 1024 z "},"Ü":{"ha":350,"x_min":17,"x_max":335,"o":"m 163 -8 q 110 0 136 -8 q 63 26 83 8 q 29 73 42 44 q 17 140 17 101 l 17 971 l 154 971 l 154 161 q 158 119 154 132 q 174 107 163 107 l 178 107 q 192 119 189 107 q 196 161 196 132 l 196 971 l 335 971 l 335 140 q 322 73 335 101 q 290 26 310 44 q 243 0 269 8 q 189 -8 217 -8 l 163 -8 m 151 1033 l 61 1033 l 61 1136 l 151 1136 l 151 1033 m 290 1033 l 200 1033 l 200 1136 l 290 1136 l 290 1033 z "},"Ý":{"ha":357,"x_min":3,"x_max":354,"o":"m 249 347 l 247 0 l 110 0 l 110 347 l 3 971 l 142 971 l 176 660 l 181 660 l 215 971 l 354 971 l 249 347 m 136 1024 l 183 1143 l 303 1143 l 218 1024 l 136 1024 z "},"ã":{"ha":313,"x_min":14,"x_max":303,"o":"m 94 -4 q 49 6 65 -4 q 26 35 33 17 q 16 81 18 54 q 14 140 14 107 l 14 240 q 17 300 14 274 q 30 345 21 326 q 56 374 39 364 q 103 385 74 385 l 107 385 q 174 360 138 385 l 174 544 q 158 585 174 585 l 156 585 q 142 544 142 585 l 142 404 l 14 404 l 14 547 q 51 653 14 614 q 146 692 88 692 l 172 692 q 267 653 231 692 q 303 546 303 614 l 303 0 l 174 0 l 174 22 q 99 -4 133 -4 l 94 -4 m 28 796 q 64 842 43 828 q 101 856 85 856 q 148 844 126 856 q 194 832 169 832 q 212 836 204 832 q 231 851 219 840 l 292 813 q 253 765 272 776 q 214 754 233 754 q 167 765 186 754 q 126 776 147 776 q 107 773 117 776 q 85 757 97 769 l 28 796 m 156 290 q 142 250 142 290 l 142 131 q 156 90 142 90 l 158 90 q 174 119 172 90 l 174 282 q 167 290 171 290 l 156 290 z "},"â":{"ha":313,"x_min":13,"x_max":307,"o":"m 94 -4 q 49 6 65 -4 q 26 35 33 17 q 16 81 18 54 q 14 140 14 107 l 14 240 q 17 300 14 274 q 30 345 21 326 q 56 374 39 364 q 103 385 74 385 l 107 385 q 174 360 138 385 l 174 544 q 158 585 174 585 l 156 585 q 142 544 142 585 l 142 404 l 14 404 l 14 547 q 51 653 14 614 q 146 692 88 692 l 172 692 q 267 653 231 692 q 303 546 303 614 l 303 0 l 174 0 l 174 22 q 99 -4 133 -4 l 94 -4 m 222 863 l 307 743 l 186 743 l 160 796 l 133 743 l 13 743 l 97 863 l 222 863 m 156 290 q 142 250 142 290 l 142 131 q 156 90 142 90 l 158 90 q 174 131 174 90 l 174 282 q 167 290 171 290 l 156 290 z "},"á":{"ha":313,"x_min":14,"x_max":303,"o":"m 94 -4 q 49 6 65 -4 q 26 35 33 17 q 16 81 18 54 q 14 140 14 107 l 14 240 q 17 300 14 274 q 30 345 21 326 q 56 374 39 364 q 103 385 74 385 l 107 385 q 174 360 138 385 l 174 544 q 158 585 174 585 l 156 585 q 142 544 142 585 l 142 404 l 14 404 l 14 547 q 51 653 14 614 q 146 692 88 692 l 172 692 q 267 653 231 692 q 303 546 303 614 l 303 0 l 174 0 l 174 22 q 99 -4 133 -4 l 94 -4 m 117 743 l 164 863 l 285 863 l 200 743 l 117 743 m 156 290 q 142 250 142 290 l 142 131 q 156 90 142 90 l 158 90 q 174 131 174 90 l 174 281 q 167 290 174 290 l 156 290 z "},"à":{"ha":313,"x_min":14,"x_max":303,"o":"m 94 -4 q 49 6 65 -4 q 26 35 33 17 q 16 81 18 54 q 14 140 14 107 l 14 240 q 17 300 14 274 q 30 345 21 326 q 56 374 39 364 q 103 385 74 385 l 107 385 q 174 360 138 385 l 174 544 q 158 585 174 585 l 156 585 q 142 544 142 585 l 142 404 l 14 404 l 14 547 q 51 653 14 614 q 146 692 88 692 l 172 692 q 267 653 231 692 q 303 546 303 614 l 303 0 l 174 0 l 174 22 q 99 -4 133 -4 l 94 -4 m 119 743 l 35 863 l 156 863 l 203 743 l 119 743 m 156 290 q 142 250 142 290 l 142 131 q 156 90 142 90 l 158 90 q 174 119 172 90 l 174 281 q 167 290 174 290 l 156 290 z "},"ä":{"ha":313,"x_min":14,"x_max":303,"o":"m 94 -4 q 49 6 65 -4 q 26 35 33 17 q 16 81 18 54 q 14 140 14 107 l 14 240 q 17 300 14 274 q 30 345 21 326 q 56 374 39 364 q 103 385 74 385 l 107 385 q 174 360 138 385 l 174 544 q 158 585 174 585 l 156 585 q 142 544 142 585 l 142 404 l 14 404 l 14 547 q 51 653 14 614 q 146 692 88 692 l 172 692 q 267 653 231 692 q 303 546 303 614 l 303 0 l 174 0 l 174 22 q 99 -4 133 -4 l 94 -4 m 136 753 l 44 753 l 44 854 l 136 854 l 136 753 m 274 753 l 183 753 l 183 854 l 274 854 l 274 753 m 156 290 q 142 250 142 290 l 142 131 q 156 90 142 90 l 158 90 q 174 119 172 90 l 174 281 q 167 290 174 290 l 156 290 z "},"å":{"ha":313,"x_min":14,"x_max":303,"o":"m 94 -4 q 49 6 65 -4 q 26 35 33 17 q 16 81 18 54 q 14 140 14 107 l 14 240 q 17 300 14 274 q 30 345 21 326 q 56 374 39 364 q 103 385 74 385 l 107 385 q 174 360 138 385 l 174 544 q 158 585 174 585 l 156 585 q 142 544 142 585 l 142 404 l 14 404 l 14 547 q 51 653 14 614 q 146 692 88 692 l 172 692 q 267 653 231 692 q 303 546 303 614 l 303 0 l 174 0 l 174 22 q 99 -4 133 -4 l 94 -4 m 160 725 q 124 733 142 725 q 93 754 107 740 q 71 785 79 768 q 63 821 63 801 q 70 858 63 840 q 92 890 78 876 q 122 913 106 904 q 158 921 139 921 q 196 913 178 921 q 228 891 214 904 q 250 860 242 878 q 258 821 258 842 q 229 754 258 783 q 160 725 200 725 m 156 290 q 142 250 142 290 l 142 131 q 156 90 142 90 l 158 90 q 174 131 174 90 l 174 282 q 167 290 171 290 l 156 290 m 160 850 q 140 842 149 850 q 132 822 132 833 q 140 803 132 811 q 160 794 149 794 q 178 803 171 794 q 186 822 186 811 q 178 842 186 833 q 160 850 171 850 z "},"ç":{"ha":313,"x_min":14,"x_max":303,"o":"m 67 -154 l 79 -92 q 108 -103 92 -100 q 138 -106 124 -107 q 160 -97 151 -104 q 165 -78 168 -90 q 147 -62 163 -65 q 117 -69 131 -60 l 90 -60 l 121 -3 q 43 42 72 4 q 14 142 14 81 l 14 546 q 49 653 14 614 q 143 692 85 692 l 169 692 q 265 653 228 692 q 303 547 303 614 l 303 404 l 174 404 l 174 544 q 160 585 174 585 l 157 585 q 142 544 142 585 l 142 143 q 157 103 142 103 l 160 103 q 174 143 174 103 l 174 286 l 303 286 l 303 142 q 274 44 303 82 q 196 -1 244 7 l 183 -36 q 233 -35 210 -24 q 257 -76 257 -46 q 233 -140 257 -117 q 178 -170 210 -162 q 115 -173 146 -178 q 67 -154 83 -168 z "},"ê":{"ha":313,"x_min":10,"x_max":304,"o":"m 157 103 l 160 103 q 174 143 174 103 l 174 286 l 303 286 l 303 142 q 265 35 303 74 q 169 -4 228 -4 l 143 -4 q 49 35 85 -4 q 14 142 14 75 l 14 546 q 49 653 14 614 q 143 692 85 692 l 169 692 q 265 653 228 692 q 303 547 303 614 l 303 311 l 142 311 l 142 143 q 157 103 142 103 m 219 863 l 304 743 l 183 743 l 157 796 l 131 743 l 10 743 l 94 863 l 219 863 m 174 399 l 174 544 q 160 585 174 585 l 157 585 q 142 544 142 585 l 142 399 l 174 399 z "},"é":{"ha":313,"x_min":14,"x_max":303,"o":"m 157 103 l 160 103 q 174 143 174 103 l 174 286 l 303 286 l 303 142 q 265 35 303 74 q 169 -4 228 -4 l 143 -4 q 49 35 85 -4 q 14 142 14 75 l 14 546 q 49 653 14 614 q 143 692 85 692 l 169 692 q 265 653 228 692 q 303 547 303 614 l 303 311 l 142 311 l 142 143 q 157 103 142 103 m 114 743 l 161 863 l 282 863 l 197 743 l 114 743 m 174 399 l 174 544 q 160 585 174 585 l 157 585 q 142 544 142 585 l 142 399 l 174 399 z "},"è":{"ha":313,"x_min":14,"x_max":303,"o":"m 157 103 l 160 103 q 174 143 174 103 l 174 286 l 303 286 l 303 142 q 265 35 303 74 q 169 -4 228 -4 l 143 -4 q 49 35 85 -4 q 14 142 14 75 l 14 546 q 49 653 14 614 q 143 692 85 692 l 169 692 q 265 653 228 692 q 303 547 303 614 l 303 311 l 142 311 l 142 143 q 157 103 142 103 m 118 743 l 33 863 l 154 863 l 200 743 l 118 743 m 174 399 l 174 544 q 160 585 174 585 l 157 585 q 142 544 142 585 l 142 399 l 174 399 z "},"ë":{"ha":313,"x_min":14,"x_max":303,"o":"m 157 103 l 160 103 q 174 143 174 103 l 174 286 l 303 286 l 303 142 q 265 35 303 74 q 169 -4 228 -4 l 143 -4 q 49 35 85 -4 q 14 142 14 75 l 14 546 q 49 653 14 614 q 143 692 85 692 l 169 692 q 265 653 228 692 q 303 547 303 614 l 303 311 l 142 311 l 142 143 q 157 103 142 103 m 272 753 l 181 753 l 181 854 l 272 854 l 272 753 m 133 753 l 43 753 l 43 854 l 133 854 l 133 753 m 174 399 l 174 544 q 160 585 174 585 l 157 585 q 142 544 142 585 l 142 399 l 174 399 z "},"ñ":{"ha":317,"x_min":14,"x_max":346,"o":"m 163 585 q 178 544 178 585 l 178 0 l 306 0 l 306 547 q 302 607 306 581 q 290 652 299 633 q 263 681 281 671 q 215 692 244 692 l 213 692 q 142 658 178 692 l 142 688 l 14 688 l 14 0 l 142 0 l 142 551 q 161 585 144 585 l 163 585 m 83 796 q 119 842 99 828 q 156 856 139 856 q 203 844 182 856 q 250 832 224 832 q 266 836 258 832 q 285 851 274 840 l 346 813 q 308 765 328 776 q 268 754 288 754 q 222 765 242 754 q 181 776 201 776 q 161 773 171 776 q 139 757 151 769 l 83 796 z "},"õ":{"ha":313,"x_min":14,"x_max":303,"o":"m 143 -4 q 49 35 85 -4 q 14 140 14 74 l 14 547 q 49 653 14 614 q 143 692 85 692 l 169 692 q 265 653 228 692 q 303 547 303 614 l 303 140 q 265 35 303 74 q 169 -4 228 -4 l 143 -4 m 157 585 q 142 544 142 585 l 142 143 q 157 103 142 103 l 160 103 q 174 143 174 103 l 174 544 q 160 585 174 585 l 157 585 m 26 796 q 62 842 42 828 q 99 856 82 856 q 146 844 125 856 q 193 832 167 832 q 209 836 201 832 q 228 851 217 840 l 289 813 q 251 765 271 776 q 211 754 231 754 q 165 765 185 754 q 124 776 144 776 q 104 773 114 776 q 82 757 94 769 l 26 796 z "},"ô":{"ha":313,"x_min":11,"x_max":304,"o":"m 143 -4 q 49 35 85 -4 q 14 140 14 74 l 14 547 q 49 653 14 614 q 143 692 85 692 l 169 692 q 265 653 228 692 q 303 547 303 614 l 303 140 q 265 35 303 74 q 169 -4 228 -4 l 143 -4 m 219 863 l 304 743 l 183 743 l 157 794 l 132 743 l 11 743 l 96 863 l 219 863 m 157 585 q 142 544 142 585 l 142 143 q 157 103 142 103 l 160 103 q 174 143 174 103 l 174 544 q 160 585 174 585 l 157 585 z "},"ó":{"ha":313,"x_min":14,"x_max":303,"o":"m 143 -4 q 49 35 85 -4 q 14 140 14 74 l 14 547 q 49 653 14 614 q 143 692 85 692 l 169 692 q 265 653 228 692 q 303 547 303 614 l 303 140 q 265 35 303 74 q 169 -4 228 -4 l 143 -4 m 157 585 q 142 544 142 585 l 142 143 q 157 103 142 103 l 160 103 q 174 143 174 103 l 174 544 q 160 585 174 585 l 157 585 m 114 743 l 161 863 l 282 863 l 197 743 l 114 743 z "},"ò":{"ha":313,"x_min":14,"x_max":303,"o":"m 143 -4 q 49 35 85 -4 q 14 140 14 74 l 14 547 q 49 653 14 614 q 143 692 85 692 l 169 692 q 265 653 228 692 q 303 547 303 614 l 303 140 q 265 35 303 74 q 169 -4 228 -4 l 143 -4 m 157 585 q 142 544 142 585 l 142 143 q 157 103 142 103 l 160 103 q 174 143 174 103 l 174 544 q 160 585 174 585 l 157 585 m 118 743 l 33 863 l 154 863 l 201 743 l 118 743 z "},"ö":{"ha":313,"x_min":14,"x_max":303,"o":"m 143 -4 q 49 35 85 -4 q 14 140 14 74 l 14 547 q 49 653 14 614 q 143 692 85 692 l 169 692 q 265 653 228 692 q 303 547 303 614 l 303 140 q 265 35 303 74 q 169 -4 228 -4 l 143 -4 m 157 585 q 142 544 142 585 l 142 143 q 157 103 142 103 l 160 103 q 174 143 174 103 l 174 544 q 160 585 174 585 l 157 585 m 133 756 l 43 756 l 43 857 l 133 857 l 133 756 m 272 756 l 182 756 l 182 857 l 272 857 l 272 756 z "},"û":{"ha":317,"x_min":11,"x_max":304,"o":"m 156 103 q 175 136 172 103 l 175 688 l 303 688 l 303 0 l 175 0 l 175 29 q 104 -4 139 -4 l 101 -4 q 54 6 72 -4 q 27 35 36 17 q 15 81 18 54 q 11 140 11 107 l 11 688 l 139 688 l 139 143 q 153 103 139 103 l 156 103 m 219 860 l 304 740 l 183 740 l 157 793 l 131 740 l 11 740 l 96 860 l 219 860 z "},"ú":{"ha":317,"x_min":11,"x_max":303,"o":"m 156 103 q 175 144 175 103 l 175 688 l 303 688 l 303 0 l 175 0 l 175 29 q 104 -4 139 -4 l 101 -4 q 54 6 72 -4 q 27 35 36 17 q 15 81 18 54 q 11 140 11 107 l 11 688 l 139 688 l 139 143 q 153 103 139 103 l 156 103 m 114 740 l 161 860 l 282 860 l 197 740 l 114 740 z "},"ù":{"ha":317,"x_min":11,"x_max":303,"o":"m 153 103 q 139 143 139 103 l 139 688 l 11 688 l 11 140 q 15 81 11 107 q 27 35 18 54 q 54 6 36 17 q 101 -4 72 -4 l 104 -4 q 175 29 139 -4 l 175 0 l 303 0 l 303 688 l 175 688 l 175 144 q 156 103 175 103 l 153 103 m 118 740 l 33 860 l 154 860 l 201 740 l 118 740 z "},"ü":{"ha":317,"x_min":11,"x_max":303,"o":"m 153 103 q 139 143 139 103 l 139 688 l 11 688 l 11 140 q 15 81 11 107 q 27 35 18 54 q 54 6 36 17 q 101 -4 72 -4 l 104 -4 q 175 29 139 -4 l 175 0 l 303 0 l 303 688 l 175 688 l 175 136 q 156 103 172 103 l 153 103 m 272 750 l 182 750 l 182 853 l 272 853 l 272 750 m 133 750 l 43 750 l 43 853 l 133 853 l 133 750 z "},"î":{"ha":156,"x_min":-65,"x_max":228,"o":"m 144 688 l 144 0 l 17 0 l 17 688 l 144 688 m 143 860 l 228 740 l 107 740 l 81 792 l 56 740 l -65 740 l 19 860 l 143 860 z "},"ì":{"ha":156,"x_min":-43,"x_max":144,"o":"m 17 688 l 17 0 l 144 0 l 144 688 l 17 688 m 42 740 l -43 860 l 78 860 l 125 740 l 42 740 z "},"ï":{"ha":156,"x_min":-33,"x_max":196,"o":"m 17 688 l 17 0 l 144 0 l 144 688 l 17 688 m 57 750 l -33 750 l -33 853 l 57 853 l 57 750 m 196 750 l 106 750 l 106 853 l 196 853 l 196 750 z "},"ý":{"ha":294,"x_min":3,"x_max":292,"o":"m 188 688 l 292 688 l 210 -229 l 83 -229 l 111 0 l 3 688 l 118 688 l 153 350 l 157 350 l 188 688 m 107 743 l 154 863 l 275 863 l 190 743 l 107 743 z "},"ÿ":{"ha":294,"x_min":3,"x_max":292,"o":"m 157 350 l 153 350 l 118 688 l 3 688 l 111 0 l 83 -229 l 210 -229 l 292 688 l 188 688 l 157 350 m 124 757 l 33 757 l 33 858 l 124 858 l 124 757 m 263 757 l 171 757 l 171 858 l 263 858 l 263 757 z "},"Ă":{"ha":351,"x_min":3,"x_max":349,"o":"m 217 0 l 349 0 l 261 971 l 85 971 l 3 0 l 121 0 l 139 244 l 197 244 l 217 0 m 149 1139 q 156 1119 149 1128 q 175 1110 164 1110 q 194 1119 186 1110 q 203 1139 203 1128 l 285 1139 q 276 1098 285 1118 q 251 1063 267 1078 q 216 1040 236 1049 q 174 1031 196 1031 q 134 1040 153 1031 q 101 1063 115 1049 q 77 1097 86 1078 q 68 1139 68 1117 l 149 1139 m 167 594 l 171 594 l 189 347 l 147 347 l 167 594 z "},"Ā":{"ha":351,"x_min":3,"x_max":349,"o":"m 197 244 l 139 244 l 121 0 l 3 0 l 85 971 l 261 971 l 349 0 l 217 0 l 197 244 m 279 1038 l 69 1038 l 69 1132 l 279 1132 l 279 1038 m 147 347 l 189 347 l 171 594 l 167 594 l 147 347 z "},"Ą":{"ha":351,"x_min":3,"x_max":363,"o":"m 363 -97 q 322 -136 349 -125 q 270 -143 296 -147 q 225 -121 244 -139 q 206 -72 206 -103 q 244 0 206 -32 l 217 0 l 197 244 l 139 244 l 121 0 l 3 0 l 85 971 l 261 971 l 349 0 l 342 0 q 297 -25 314 -7 q 282 -58 281 -43 q 295 -76 283 -74 q 318 -67 307 -78 l 363 -97 m 147 347 l 189 347 l 171 594 l 167 594 l 147 347 z "},"ă":{"ha":313,"x_min":14,"x_max":303,"o":"m 94 -4 q 49 6 65 -4 q 26 35 33 17 q 16 81 18 54 q 14 140 14 107 l 14 240 q 17 300 14 274 q 30 345 21 326 q 56 374 39 364 q 103 385 74 385 l 107 385 q 174 360 138 385 l 174 544 q 158 585 174 585 l 156 585 q 142 544 142 585 l 142 404 l 14 404 l 14 547 q 51 653 14 614 q 146 692 88 692 l 172 692 q 267 653 231 692 q 303 546 303 614 l 303 0 l 174 0 l 174 22 q 99 -4 133 -4 l 94 -4 m 133 858 q 141 838 133 847 q 160 829 149 829 q 179 838 171 829 q 188 858 188 847 l 269 858 q 260 817 269 836 q 237 783 251 797 q 202 759 222 768 q 160 750 182 750 q 119 759 139 750 q 85 783 100 768 q 63 817 71 797 q 54 858 54 836 l 133 858 m 156 290 q 142 250 142 290 l 142 131 q 156 90 142 90 l 158 90 q 174 131 174 90 l 174 282 q 167 290 171 290 l 156 290 z "},"ā":{"ha":313,"x_min":14,"x_max":303,"o":"m 94 -4 q 49 6 65 -4 q 26 35 33 17 q 16 81 18 54 q 14 140 14 107 l 14 240 q 17 300 14 274 q 30 345 21 326 q 56 374 39 364 q 103 385 74 385 l 107 385 q 174 360 138 385 l 174 544 q 158 585 174 585 l 156 585 q 142 544 142 585 l 142 404 l 14 404 l 14 547 q 51 653 14 614 q 146 692 88 692 l 172 692 q 267 653 231 692 q 303 546 303 614 l 303 0 l 174 0 l 174 22 q 99 -4 133 -4 l 94 -4 m 264 757 l 54 757 l 54 851 l 264 851 l 264 757 m 156 290 q 142 250 142 290 l 142 131 q 156 90 142 90 l 158 90 q 174 119 172 90 l 174 282 q 167 290 171 290 l 156 290 z "},"ą":{"ha":313,"x_min":14,"x_max":321,"o":"m 94 -4 q 49 6 65 -4 q 26 35 33 17 q 16 81 18 54 q 14 140 14 107 l 14 240 q 17 300 14 274 q 30 345 21 326 q 56 374 39 364 q 103 385 74 385 l 107 385 q 174 360 138 385 l 174 544 q 158 585 174 585 l 156 585 q 142 544 142 585 l 142 404 l 14 404 l 14 547 q 51 653 14 614 q 146 692 88 692 l 172 692 q 267 653 231 692 q 303 546 303 614 l 303 0 l 174 0 l 174 22 q 99 -4 133 -4 l 94 -4 m 275 -67 q 252 -76 264 -78 q 239 -58 240 -74 q 255 -25 238 -43 q 300 0 272 -7 l 201 0 q 164 -72 164 -32 q 183 -121 164 -103 q 228 -143 203 -139 q 281 -136 254 -147 q 321 -97 307 -125 l 275 -67 m 156 290 q 142 250 142 290 l 142 131 q 156 90 142 90 l 158 90 q 174 119 172 90 l 174 282 q 167 290 171 290 l 156 290 z "},"Ĉ":{"ha":350,"x_min":17,"x_max":333,"o":"m 161 -8 q 108 0 133 -8 q 62 26 82 8 q 29 73 42 44 q 17 140 17 101 l 17 831 q 29 898 17 869 q 62 944 42 926 q 108 971 82 963 q 161 979 133 979 l 189 979 q 242 971 215 979 q 288 944 268 963 q 321 898 308 926 q 333 831 333 869 l 333 581 l 196 581 l 196 811 q 192 852 196 840 q 176 864 188 864 l 174 864 q 158 852 163 864 q 154 810 154 840 l 154 161 q 158 119 154 132 q 174 107 163 107 l 176 107 q 192 119 188 107 q 196 161 196 132 l 196 393 l 333 393 l 333 140 q 321 73 333 101 q 288 26 308 44 q 242 0 268 8 q 189 -8 215 -8 l 161 -8 m 238 1144 l 322 1025 l 201 1025 l 175 1076 l 150 1025 l 29 1025 l 114 1144 l 238 1144 z "},"Ć":{"ha":350,"x_min":17,"x_max":333,"o":"m 161 -8 q 108 0 133 -8 q 62 26 82 8 q 29 73 42 44 q 17 140 17 101 l 17 831 q 29 898 17 869 q 62 944 42 926 q 108 971 82 963 q 161 979 133 979 l 189 979 q 242 971 215 979 q 288 944 268 963 q 321 898 308 926 q 333 831 333 869 l 333 581 l 196 581 l 196 811 q 192 852 196 840 q 176 864 188 864 l 174 864 q 158 852 163 864 q 154 810 154 840 l 154 161 q 158 119 154 132 q 174 107 163 107 l 176 107 q 192 119 188 107 q 196 161 196 132 l 196 393 l 333 393 l 333 140 q 321 73 333 101 q 288 26 308 44 q 242 0 268 8 q 189 -8 215 -8 l 161 -8 m 132 1025 l 179 1144 l 300 1144 l 215 1025 l 132 1025 z "},"Č":{"ha":350,"x_min":17,"x_max":333,"o":"m 161 -8 q 108 0 133 -8 q 62 26 82 8 q 29 73 42 44 q 17 140 17 101 l 17 831 q 29 898 17 869 q 62 944 42 926 q 108 971 82 963 q 161 979 133 979 l 189 979 q 242 971 215 979 q 288 944 268 963 q 321 898 308 926 q 333 831 333 869 l 333 581 l 196 581 l 196 811 q 192 852 196 840 q 176 864 188 864 l 174 864 q 158 852 163 864 q 154 810 154 840 l 154 161 q 158 119 154 132 q 174 107 163 107 l 176 107 q 192 119 188 107 q 196 161 196 132 l 196 393 l 333 393 l 333 140 q 321 73 333 101 q 288 26 308 44 q 242 0 268 8 q 189 -8 215 -8 l 161 -8 m 113 1025 l 28 1144 l 149 1144 l 174 1093 l 200 1144 l 321 1144 l 236 1025 l 113 1025 z "},"Ċ":{"ha":350,"x_min":17,"x_max":333,"o":"m 161 -8 q 108 0 133 -8 q 62 26 82 8 q 29 73 42 44 q 17 140 17 101 l 17 831 q 29 898 17 869 q 62 944 42 926 q 108 971 82 963 q 161 979 133 979 l 189 979 q 242 971 215 979 q 288 944 268 963 q 321 898 308 926 q 333 831 333 869 l 333 581 l 196 581 l 196 811 q 192 852 196 840 q 176 864 188 864 l 174 864 q 158 852 163 864 q 154 810 154 840 l 154 161 q 158 119 154 132 q 174 107 163 107 l 176 107 q 192 119 188 107 q 196 161 196 132 l 196 393 l 333 393 l 333 140 q 321 73 333 101 q 288 26 308 44 q 242 0 268 8 q 189 -8 215 -8 l 161 -8 m 218 1036 l 128 1036 l 128 1138 l 218 1138 l 218 1036 z "},"ĉ":{"ha":313,"x_min":11,"x_max":304,"o":"m 174 404 l 174 544 q 160 585 174 585 l 157 585 q 142 544 142 585 l 142 143 q 157 103 142 103 l 160 103 q 174 143 174 103 l 174 286 l 303 286 l 303 142 q 265 35 303 74 q 169 -4 228 -4 l 143 -4 q 49 35 85 -4 q 14 142 14 75 l 14 546 q 49 653 14 614 q 143 692 85 692 l 169 692 q 265 653 228 692 q 303 547 303 614 l 303 404 l 174 404 m 219 863 l 304 743 l 183 743 l 157 796 l 131 743 l 11 743 l 96 863 l 219 863 z "},"ć":{"ha":313,"x_min":14,"x_max":303,"o":"m 174 404 l 174 544 q 160 585 174 585 l 157 585 q 142 544 142 585 l 142 143 q 157 103 142 103 l 160 103 q 174 143 174 103 l 174 286 l 303 286 l 303 142 q 265 35 303 74 q 169 -4 228 -4 l 143 -4 q 49 35 85 -4 q 14 142 14 75 l 14 546 q 49 653 14 614 q 143 692 85 692 l 169 692 q 265 653 228 692 q 303 547 303 614 l 303 404 l 174 404 m 114 743 l 161 863 l 282 863 l 197 743 l 114 743 z "},"č":{"ha":313,"x_min":10,"x_max":303,"o":"m 174 404 l 174 544 q 160 585 174 585 l 157 585 q 142 544 142 585 l 142 143 q 157 103 142 103 l 160 103 q 174 143 174 103 l 174 286 l 303 286 l 303 142 q 265 35 303 74 q 169 -4 228 -4 l 143 -4 q 49 35 85 -4 q 14 142 14 75 l 14 546 q 49 653 14 614 q 143 692 85 692 l 169 692 q 265 653 228 692 q 303 547 303 614 l 303 404 l 174 404 m 94 743 l 10 863 l 129 863 l 156 810 l 182 863 l 303 863 l 218 743 l 94 743 z "},"ċ":{"ha":313,"x_min":14,"x_max":303,"o":"m 174 404 l 174 544 q 160 585 174 585 l 157 585 q 142 544 142 585 l 142 143 q 157 103 142 103 l 160 103 q 174 143 174 103 l 174 286 l 303 286 l 303 142 q 265 35 303 74 q 169 -4 228 -4 l 143 -4 q 49 35 85 -4 q 14 142 14 75 l 14 546 q 49 653 14 614 q 143 692 85 692 l 169 692 q 265 653 228 692 q 303 547 303 614 l 303 404 l 174 404 m 200 754 l 108 754 l 108 856 l 200 856 l 200 754 z "},"Ď":{"ha":350,"x_min":17,"x_max":335,"o":"m 17 0 l 17 971 l 189 971 q 242 963 215 971 q 289 936 268 954 q 322 890 310 918 q 335 824 335 863 l 335 147 q 322 81 335 108 q 289 35 310 53 q 242 8 268 17 q 189 0 215 0 l 17 0 m 154 856 l 154 115 l 178 115 q 192 128 189 115 q 196 169 196 140 l 196 801 q 178 856 196 856 l 154 856 m 113 1025 l 28 1144 l 149 1144 l 175 1092 l 201 1144 l 322 1144 l 238 1025 l 113 1025 z "},"ď":{"ha":497,"x_min":14,"x_max":488,"o":"m 107 -4 q 32 35 50 -4 q 14 140 14 75 l 14 547 q 17 607 14 581 q 30 652 21 633 q 56 681 39 671 q 103 692 74 692 l 107 692 q 174 661 140 692 l 174 971 l 303 971 l 303 0 l 199 0 l 186 33 q 111 -4 149 -4 l 107 -4 m 488 819 l 449 729 l 392 729 l 413 819 l 347 819 l 347 971 l 488 971 l 488 819 m 157 585 q 142 544 142 585 l 142 143 q 156 103 142 103 l 158 103 q 174 131 172 103 l 174 556 q 158 585 171 585 l 157 585 z "},"Ĕ":{"ha":289,"x_min":17,"x_max":281,"o":"m 269 856 l 269 971 l 17 971 l 17 0 l 281 0 l 281 115 l 154 115 l 154 433 l 246 433 l 246 536 l 154 536 l 154 856 l 269 856 m 124 1139 q 131 1119 124 1128 q 150 1110 139 1110 q 169 1119 161 1110 q 178 1139 178 1128 l 260 1139 q 251 1098 260 1118 q 226 1063 242 1078 q 191 1040 211 1049 q 149 1031 171 1031 q 109 1040 128 1031 q 76 1063 90 1049 q 52 1097 61 1078 q 43 1139 43 1117 l 124 1139 z "},"Ė":{"ha":289,"x_min":17,"x_max":281,"o":"m 269 856 l 269 971 l 17 971 l 17 0 l 281 0 l 281 115 l 154 115 l 154 433 l 246 433 l 246 536 l 154 536 l 154 856 l 269 856 m 192 1035 l 101 1035 l 101 1138 l 192 1138 l 192 1035 z "},"Ē":{"ha":289,"x_min":17,"x_max":281,"o":"m 154 856 l 154 536 l 246 536 l 246 433 l 154 433 l 154 115 l 281 115 l 281 0 l 17 0 l 17 971 l 269 971 l 269 856 l 154 856 m 254 1038 l 44 1038 l 44 1132 l 254 1132 l 254 1038 z "},"Ę":{"ha":289,"x_min":17,"x_max":281,"o":"m 231 -97 q 191 -136 217 -125 q 140 -143 165 -147 q 94 -121 114 -139 q 75 -72 75 -103 q 113 0 75 -32 l 17 0 l 17 971 l 269 971 l 269 856 l 154 856 l 154 536 l 246 536 l 246 433 l 154 433 l 154 115 l 281 115 l 281 0 l 211 0 q 166 -25 183 -7 q 150 -58 149 -43 q 163 -76 151 -74 q 186 -67 175 -78 l 231 -97 z "},"ę":{"ha":313,"x_min":14,"x_max":303,"o":"m 239 -101 q 199 -140 225 -129 q 147 -147 172 -151 q 101 -125 121 -143 q 82 -76 82 -107 q 92 -37 82 -57 q 119 -3 103 -18 q 42 42 71 4 q 14 142 14 81 l 14 546 q 49 653 14 614 q 143 692 85 692 l 169 692 q 265 653 228 692 q 303 547 303 614 l 303 311 l 142 311 l 142 143 q 157 103 142 103 l 160 103 q 174 143 174 103 l 174 286 l 303 286 l 303 142 q 280 54 303 89 q 219 4 257 19 q 175 -29 193 -10 q 157 -62 157 -49 q 170 -80 158 -78 q 193 -71 182 -82 l 239 -101 m 174 399 l 174 544 q 160 585 174 585 l 157 585 q 142 544 142 585 l 142 399 l 174 399 z "},"ě":{"ha":313,"x_min":8,"x_max":303,"o":"m 157 103 l 160 103 q 174 143 174 103 l 174 286 l 303 286 l 303 142 q 265 35 303 74 q 169 -4 228 -4 l 143 -4 q 49 35 85 -4 q 14 142 14 75 l 14 546 q 49 653 14 614 q 143 692 85 692 l 169 692 q 265 653 228 692 q 303 547 303 614 l 303 311 l 142 311 l 142 143 q 157 103 142 103 m 93 743 l 8 863 l 129 863 l 156 810 l 182 863 l 303 863 l 218 743 l 93 743 m 174 399 l 174 544 q 160 585 174 585 l 157 585 q 142 544 142 585 l 142 399 l 174 399 z "},"ĕ":{"ha":313,"x_min":14,"x_max":303,"o":"m 157 103 l 160 103 q 174 143 174 103 l 174 286 l 303 286 l 303 142 q 265 35 303 74 q 169 -4 228 -4 l 143 -4 q 49 35 85 -4 q 14 142 14 75 l 14 546 q 49 653 14 614 q 143 692 85 692 l 169 692 q 265 653 228 692 q 303 547 303 614 l 303 311 l 142 311 l 142 143 q 157 103 142 103 m 131 858 q 138 838 131 847 q 158 829 146 829 q 177 838 169 829 q 185 858 185 847 l 267 858 q 258 817 267 836 q 234 783 249 797 q 199 759 219 768 q 157 750 179 750 q 117 759 136 750 q 83 783 97 768 q 60 817 68 797 q 51 858 51 836 l 131 858 m 174 399 l 174 544 q 160 585 174 585 l 157 585 q 142 544 142 585 l 142 399 l 174 399 z "},"ė":{"ha":313,"x_min":14,"x_max":303,"o":"m 157 103 l 160 103 q 174 143 174 103 l 174 286 l 303 286 l 303 142 q 265 35 303 74 q 169 -4 228 -4 l 143 -4 q 49 35 85 -4 q 14 142 14 75 l 14 546 q 49 653 14 614 q 143 692 85 692 l 169 692 q 265 653 228 692 q 303 547 303 614 l 303 311 l 142 311 l 142 143 q 157 103 142 103 m 200 754 l 108 754 l 108 856 l 200 856 l 200 754 m 174 399 l 174 544 q 160 585 174 585 l 157 585 q 142 544 142 585 l 142 399 l 174 399 z "},"ē":{"ha":313,"x_min":14,"x_max":303,"o":"m 157 103 l 160 103 q 174 143 174 103 l 174 286 l 303 286 l 303 142 q 265 35 303 74 q 169 -4 228 -4 l 143 -4 q 49 35 85 -4 q 14 142 14 75 l 14 546 q 49 653 14 614 q 143 692 85 692 l 169 692 q 265 653 228 692 q 303 547 303 614 l 303 311 l 142 311 l 142 143 q 157 103 142 103 m 261 757 l 53 757 l 53 851 l 261 851 l 261 757 m 174 399 l 174 544 q 160 585 174 585 l 157 585 q 142 544 142 585 l 142 399 l 174 399 z "},"Ě":{"ha":289,"x_min":1,"x_max":294,"o":"m 269 856 l 269 971 l 17 971 l 17 0 l 281 0 l 281 115 l 154 115 l 154 433 l 246 433 l 246 536 l 154 536 l 154 856 l 269 856 m 86 1025 l 1 1144 l 122 1144 l 149 1092 l 175 1144 l 294 1144 l 210 1025 l 86 1025 z "},"Ĝ":{"ha":350,"x_min":17,"x_max":333,"o":"m 161 -8 q 108 0 133 -8 q 62 26 82 8 q 29 73 42 44 q 17 140 17 101 l 17 831 q 29 898 17 869 q 62 944 42 926 q 108 971 82 963 q 161 979 133 979 l 189 979 q 242 971 215 979 q 288 944 268 963 q 321 898 308 926 q 333 831 333 869 l 333 581 l 196 581 l 196 811 q 192 852 196 840 q 176 864 188 864 l 174 864 q 158 852 163 864 q 154 810 154 840 l 154 161 q 158 119 154 132 q 174 107 163 107 l 176 107 q 192 119 188 107 q 196 161 196 132 l 196 278 l 169 278 l 169 393 l 333 393 l 333 189 l 333 181 l 333 0 l 267 0 l 251 32 q 207 2 229 13 q 167 -8 185 -8 l 161 -8 m 238 1143 l 322 1024 l 201 1024 l 175 1075 l 150 1024 l 29 1024 l 114 1143 l 238 1143 z "},"Ğ":{"ha":350,"x_min":17,"x_max":333,"o":"m 161 -8 q 108 0 133 -8 q 62 26 82 8 q 29 73 42 44 q 17 140 17 101 l 17 831 q 29 898 17 869 q 62 944 42 926 q 108 971 82 963 q 161 979 133 979 l 189 979 q 242 971 215 979 q 288 944 268 963 q 321 898 308 926 q 333 831 333 869 l 333 581 l 196 581 l 196 811 q 192 852 196 840 q 176 864 188 864 l 174 864 q 158 852 163 864 q 154 810 154 840 l 154 161 q 158 119 154 132 q 174 107 163 107 l 176 107 q 192 119 188 107 q 196 161 196 132 l 196 278 l 169 278 l 169 393 l 333 393 l 333 189 l 333 181 l 333 0 l 267 0 l 251 32 q 207 2 229 13 q 167 -8 185 -8 l 161 -8 m 149 1139 q 157 1119 149 1128 q 176 1110 165 1110 q 196 1119 188 1110 q 204 1139 204 1128 l 285 1139 q 276 1098 285 1118 q 252 1063 267 1078 q 217 1040 238 1049 q 175 1031 197 1031 q 135 1040 154 1031 q 102 1063 117 1049 q 78 1097 88 1078 q 69 1139 69 1117 l 149 1139 z "},"Ġ":{"ha":350,"x_min":17,"x_max":333,"o":"m 161 -8 q 108 0 133 -8 q 62 26 82 8 q 29 73 42 44 q 17 140 17 101 l 17 831 q 29 898 17 869 q 62 944 42 926 q 108 971 82 963 q 161 979 133 979 l 189 979 q 242 971 215 979 q 288 944 268 963 q 321 898 308 926 q 333 831 333 869 l 333 581 l 196 581 l 196 811 q 192 852 196 840 q 176 864 188 864 l 174 864 q 158 852 163 864 q 154 810 154 840 l 154 161 q 158 119 154 132 q 174 107 163 107 l 176 107 q 192 119 188 107 q 196 161 196 132 l 196 278 l 169 278 l 169 393 l 333 393 l 333 189 l 333 181 l 333 0 l 267 0 l 251 32 q 207 2 229 13 q 167 -8 185 -8 l 161 -8 m 218 1035 l 128 1035 l 128 1138 l 218 1138 l 218 1035 z "},"Ģ":{"ha":350,"x_min":17,"x_max":333,"o":"m 161 -8 q 108 0 133 -8 q 62 26 82 8 q 29 73 42 44 q 17 140 17 101 l 17 831 q 29 898 17 869 q 62 944 42 926 q 108 971 82 963 q 161 979 133 979 l 189 979 q 242 971 215 979 q 288 944 268 963 q 321 898 308 926 q 333 831 333 869 l 333 581 l 196 581 l 196 811 q 192 852 196 840 q 176 864 188 864 l 174 864 q 158 852 163 864 q 154 810 154 840 l 154 161 q 158 119 154 132 q 174 107 163 107 l 176 107 q 192 119 188 107 q 196 161 196 132 l 196 278 l 169 278 l 169 393 l 333 393 l 333 189 l 333 181 l 333 0 l 267 0 l 251 32 q 207 2 229 13 q 167 -8 185 -8 l 161 -8 m 235 -193 l 196 -283 l 139 -283 l 160 -193 l 94 -193 l 94 -42 l 235 -42 l 235 -193 z "},"ĝ":{"ha":314,"x_min":11,"x_max":306,"o":"m 303 688 l 303 -83 q 267 -190 303 -150 q 174 -229 232 -229 l 146 -229 q 51 -190 88 -229 q 14 -83 14 -151 l 14 -40 l 142 -40 l 142 -82 q 156 -122 142 -122 l 160 -122 q 174 -82 174 -122 l 174 24 q 107 -4 139 -4 l 103 -4 q 56 6 74 -4 q 30 35 39 17 q 17 81 21 54 q 14 140 14 107 l 14 547 q 32 652 14 613 q 107 692 50 692 l 111 692 q 149 682 131 692 q 185 657 167 672 l 199 688 l 303 688 m 221 863 l 306 743 l 185 743 l 158 796 l 132 743 l 11 743 l 96 863 l 221 863 m 158 103 q 174 133 172 103 l 174 556 q 158 585 172 585 l 156 585 q 142 544 142 585 l 142 143 q 156 103 142 103 l 158 103 z "},"ğ":{"ha":314,"x_min":14,"x_max":303,"o":"m 199 688 l 185 657 q 149 682 167 672 q 111 692 131 692 l 107 692 q 32 652 50 692 q 14 547 14 613 l 14 140 q 17 81 14 107 q 30 35 21 54 q 56 6 39 17 q 103 -4 74 -4 l 107 -4 q 174 24 139 -4 l 174 -82 q 160 -122 174 -122 l 156 -122 q 142 -82 142 -122 l 142 -40 l 14 -40 l 14 -83 q 51 -190 14 -151 q 146 -229 88 -229 l 174 -229 q 267 -190 232 -229 q 303 -83 303 -150 l 303 688 l 199 688 m 132 858 q 140 838 132 847 q 158 829 147 829 q 178 838 169 829 q 186 858 186 847 l 268 858 q 235 782 268 814 q 157 750 203 750 q 117 759 136 750 q 84 783 99 768 q 61 817 69 797 q 53 858 53 836 l 132 858 m 156 103 q 142 143 142 103 l 142 544 q 156 585 142 585 l 158 585 q 174 556 172 585 l 174 133 q 158 103 172 103 l 156 103 z "},"ġ":{"ha":314,"x_min":14,"x_max":303,"o":"m 199 688 l 185 657 q 149 682 167 672 q 111 692 131 692 l 107 692 q 32 652 50 692 q 14 547 14 613 l 14 140 q 17 81 14 107 q 30 35 21 54 q 56 6 39 17 q 103 -4 74 -4 l 107 -4 q 174 24 139 -4 l 174 -82 q 160 -122 174 -122 l 156 -122 q 142 -82 142 -122 l 142 -40 l 14 -40 l 14 -83 q 51 -190 14 -151 q 146 -229 88 -229 l 174 -229 q 267 -190 232 -229 q 303 -83 303 -150 l 303 688 l 199 688 m 156 103 q 142 143 142 103 l 142 544 q 156 585 142 585 l 158 585 q 174 543 174 585 l 174 133 q 158 103 172 103 l 156 103 m 200 754 l 110 754 l 110 856 l 200 856 l 200 754 z "},"ģ":{"ha":314,"x_min":14,"x_max":303,"o":"m 199 688 l 185 657 q 149 682 167 672 q 111 692 131 692 l 107 692 q 32 652 50 692 q 14 547 14 613 l 14 140 q 17 81 14 107 q 30 35 21 54 q 56 6 39 17 q 103 -4 74 -4 l 107 -4 q 174 24 139 -4 l 174 -82 q 160 -122 174 -122 l 156 -122 q 142 -82 142 -122 l 142 -40 l 14 -40 l 14 -83 q 51 -190 14 -151 q 146 -229 88 -229 l 174 -229 q 267 -190 232 -229 q 303 -83 303 -150 l 303 688 l 199 688 m 156 103 q 142 143 142 103 l 142 544 q 156 585 142 585 l 158 585 q 174 556 172 585 l 174 144 q 158 103 174 103 l 156 103 m 104 851 l 133 915 l 185 915 l 171 851 l 204 851 l 204 742 l 104 742 l 104 851 z "},"Ĥ":{"ha":350,"x_min":17,"x_max":333,"o":"m 333 971 l 333 0 l 196 0 l 196 433 l 154 433 l 154 0 l 17 0 l 17 971 l 154 971 l 154 536 l 196 536 l 196 971 l 333 971 m 238 1143 l 322 1024 l 201 1024 l 175 1075 l 150 1024 l 29 1024 l 114 1143 l 238 1143 z "},"ĥ":{"ha":319,"x_min":-67,"x_max":308,"o":"m 164 585 q 144 551 147 585 l 144 0 l 17 0 l 17 971 l 144 971 l 144 657 q 178 682 161 672 q 215 692 196 692 l 218 692 q 265 681 247 692 q 292 652 283 671 q 305 607 301 633 q 308 547 308 581 l 308 0 l 179 0 l 179 544 q 165 585 179 585 l 164 585 m 142 1143 l 226 1024 l 107 1024 l 81 1076 l 54 1024 l -67 1024 l 18 1143 l 142 1143 z "},"Ħ":{"ha":350,"x_min":-8,"x_max":358,"o":"m 17 736 l 17 971 l 154 971 l 154 736 l 196 736 l 196 971 l 333 971 l 333 736 l 358 736 l 358 643 l 333 643 l 333 0 l 196 0 l 196 433 l 154 433 l 154 0 l 17 0 l 17 643 l -8 643 l -8 736 l 17 736 m 196 536 l 196 643 l 154 643 l 154 536 l 196 536 z "},"ħ":{"ha":319,"x_min":-17,"x_max":308,"o":"m 164 585 q 144 551 147 585 l 144 0 l 17 0 l 17 807 l -17 807 l -17 900 l 17 900 l 17 971 l 144 971 l 144 900 l 215 900 l 215 807 l 144 807 l 144 657 q 178 682 161 672 q 215 692 196 692 l 218 692 q 265 681 247 692 q 292 652 283 671 q 305 607 301 633 q 308 547 308 581 l 308 0 l 179 0 l 179 544 q 165 585 179 585 l 164 585 z "},"Ĩ":{"ha":171,"x_min":-46,"x_max":218,"o":"m 17 971 l 17 0 l 154 0 l 154 971 l 17 971 m -46 1078 q -9 1124 -29 1111 q 28 1138 11 1138 q 74 1126 53 1138 q 121 1114 96 1114 q 138 1118 131 1114 q 157 1133 146 1122 l 218 1094 q 179 1048 199 1060 q 140 1036 160 1036 q 93 1047 113 1036 q 53 1058 74 1058 q 33 1056 43 1058 q 11 1040 24 1053 l -46 1078 z "},"Ĭ":{"ha":171,"x_min":-19,"x_max":196,"o":"m 17 971 l 17 0 l 154 0 l 154 971 l 17 971 m 60 1140 q 67 1121 60 1129 q 88 1113 75 1113 q 106 1121 99 1113 q 114 1140 114 1129 l 196 1140 q 187 1100 196 1119 q 163 1066 178 1081 q 128 1042 149 1051 q 86 1033 108 1033 q 46 1042 65 1033 q 12 1066 26 1051 q -11 1100 -3 1081 q -19 1140 -19 1119 l 60 1140 z "},"İ":{"ha":171,"x_min":17,"x_max":154,"o":"m 17 971 l 17 0 l 154 0 l 154 971 l 17 971 m 129 1038 l 38 1038 l 38 1139 l 129 1139 l 129 1038 z "},"Ī":{"ha":171,"x_min":-19,"x_max":190,"o":"m 154 971 l 154 0 l 17 0 l 17 971 l 154 971 m 190 1039 l -19 1039 l -19 1133 l 190 1133 l 190 1039 z "},"Į":{"ha":171,"x_min":11,"x_max":168,"o":"m 168 -97 q 128 -136 154 -125 q 76 -143 101 -147 q 31 -121 50 -139 q 11 -72 11 -103 q 49 0 11 -32 l 17 0 l 17 971 l 154 971 l 154 0 l 147 0 q 103 -25 119 -7 q 86 -58 86 -43 q 99 -76 88 -74 q 122 -67 111 -78 l 168 -97 z "},"į":{"ha":156,"x_min":3,"x_max":160,"o":"m 160 -97 q 119 -136 146 -125 q 67 -143 93 -147 q 22 -121 42 -139 q 3 -72 3 -103 q 40 0 3 -32 l 17 0 l 17 688 l 144 688 l 144 0 l 139 0 q 94 -25 111 -7 q 78 -58 76 -43 q 91 -76 79 -74 q 114 -67 103 -78 l 160 -97 m 144 871 l 144 732 l 17 732 l 17 871 l 144 871 z "},"ĩ":{"ha":156,"x_min":-50,"x_max":213,"o":"m 17 688 l 17 0 l 144 0 l 144 688 l 17 688 m -50 793 q -15 839 -35 825 q 22 853 6 853 q 69 841 49 853 q 117 829 90 829 q 133 833 125 829 q 151 849 140 838 l 213 810 q 174 763 194 775 q 135 751 154 751 q 88 763 108 751 q 47 774 68 774 q 28 770 38 774 q 7 756 18 767 l -50 793 z "},"ĭ":{"ha":156,"x_min":-25,"x_max":192,"o":"m 17 688 l 17 0 l 144 0 l 144 688 l 17 688 m 54 856 q 63 835 54 844 q 82 826 71 826 q 101 835 93 826 q 110 856 110 844 l 192 856 q 183 815 192 835 q 158 780 174 794 q 123 756 143 765 q 81 747 103 747 q 41 756 60 747 q 8 780 22 765 q -16 814 -7 794 q -25 856 -25 833 l 54 856 z "},"ī":{"ha":156,"x_min":-24,"x_max":186,"o":"m 144 688 l 144 0 l 17 0 l 17 688 l 144 688 m 186 754 l -24 754 l -24 849 l 186 849 l 186 754 z "},"Ĵ":{"ha":350,"x_min":17,"x_max":413,"o":"m 161 -8 q 109 0 135 -8 q 63 26 83 8 q 29 73 42 44 q 17 140 17 101 l 17 390 l 154 390 l 154 161 q 158 119 154 132 q 174 107 163 107 l 176 107 q 192 119 188 107 q 196 161 196 132 l 196 971 l 333 971 l 333 140 q 321 73 333 101 q 288 26 308 44 q 242 0 268 8 q 189 -8 217 -8 l 161 -8 m 328 1143 l 413 1024 l 292 1024 l 265 1076 l 239 1024 l 118 1024 l 203 1143 l 328 1143 z "},"ĵ":{"ha":207,"x_min":-15,"x_max":278,"o":"m 193 688 l 193 -85 q 153 -190 193 -150 q 14 -229 113 -229 l 14 -122 q 64 -85 64 -122 l 64 688 l 193 688 m 193 853 l 278 733 l 157 733 l 131 785 l 106 733 l -15 733 l 69 853 l 193 853 z "},"Ķ":{"ha":353,"x_min":17,"x_max":350,"o":"m 253 501 l 349 0 l 221 0 l 157 317 l 154 317 l 154 0 l 17 0 l 17 971 l 154 971 l 154 629 l 157 629 l 224 971 l 350 971 l 253 501 m 253 -189 l 214 -279 l 157 -279 l 178 -189 l 113 -189 l 113 -37 l 253 -37 l 253 -189 z "},"ķ":{"ha":336,"x_min":17,"x_max":333,"o":"m 221 358 l 333 0 l 204 0 l 143 210 l 143 0 l 17 0 l 17 971 l 143 971 l 143 488 l 210 688 l 333 688 l 221 358 m 243 -178 l 203 -268 l 146 -268 l 167 -178 l 101 -178 l 101 -26 l 243 -26 l 243 -178 z "},"Ļ":{"ha":271,"x_min":17,"x_max":267,"o":"m 154 971 l 154 103 l 267 103 l 267 0 l 17 0 l 17 971 l 154 971 m 204 -193 l 165 -283 l 108 -283 l 129 -193 l 64 -193 l 64 -42 l 204 -42 l 204 -193 z "},"Ĺ":{"ha":271,"x_min":17,"x_max":267,"o":"m 154 971 l 154 103 l 267 103 l 267 0 l 17 0 l 17 971 l 154 971 m 44 1024 l 92 1143 l 213 1143 l 128 1024 l 44 1024 z "},"Ŀ":{"ha":347,"x_min":17,"x_max":333,"o":"m 154 971 l 154 103 l 267 103 l 267 0 l 17 0 l 17 971 l 154 971 m 333 321 l 193 321 l 193 474 l 333 474 l 333 321 z "},"ŀ":{"ha":328,"x_min":17,"x_max":314,"o":"m 17 971 l 144 971 l 144 0 l 17 0 l 17 971 m 314 376 l 172 376 l 172 529 l 314 529 l 314 376 z "},"ļ":{"ha":156,"x_min":10,"x_max":150,"o":"m 17 971 l 144 971 l 144 0 l 17 0 l 17 971 m 150 -179 l 110 -268 l 53 -268 l 74 -179 l 10 -179 l 10 -28 l 150 -28 l 150 -179 z "},"ľ":{"ha":324,"x_min":17,"x_max":310,"o":"m 17 971 l 144 971 l 144 0 l 17 0 l 17 971 m 310 819 l 269 729 l 213 729 l 233 819 l 168 819 l 168 971 l 310 971 l 310 819 z "},"Ő":{"ha":350,"x_min":17,"x_max":369,"o":"m 161 -8 q 108 0 133 -8 q 62 26 82 8 q 29 73 42 44 q 17 140 17 101 l 17 831 q 29 898 17 869 q 62 944 42 926 q 108 971 82 963 q 161 979 133 979 l 189 979 q 242 971 215 979 q 288 944 268 963 q 321 898 308 926 q 333 831 333 869 l 333 140 q 321 73 333 101 q 288 26 308 44 q 242 0 268 8 q 189 -8 215 -8 l 161 -8 m 174 864 q 154 810 154 864 l 154 161 q 158 119 154 132 q 174 107 163 107 l 176 107 q 192 119 188 107 q 196 161 196 132 l 196 810 q 176 864 196 864 l 174 864 m 201 1022 l 249 1142 l 369 1142 l 285 1022 l 201 1022 m 60 1022 l 107 1142 l 228 1142 l 143 1022 l 60 1022 z "},"ő":{"ha":313,"x_min":14,"x_max":351,"o":"m 143 -4 q 49 35 85 -4 q 14 140 14 74 l 14 547 q 49 653 14 614 q 143 692 85 692 l 169 692 q 265 653 228 692 q 303 547 303 614 l 303 140 q 265 35 303 74 q 169 -4 228 -4 l 143 -4 m 157 585 q 142 544 142 585 l 142 143 q 157 103 142 103 l 160 103 q 174 143 174 103 l 174 544 q 160 585 174 585 l 157 585 m 183 742 l 231 861 l 351 861 l 267 742 l 183 742 m 42 742 l 89 861 l 210 861 l 125 742 l 42 742 z "},"Ŕ":{"ha":360,"x_min":17,"x_max":354,"o":"m 335 579 q 321 513 335 535 q 286 485 307 492 q 321 458 307 479 q 335 392 335 436 l 335 190 q 338 100 335 136 q 344 42 340 64 q 350 11 347 21 q 354 0 353 1 l 215 0 q 200 62 204 17 q 196 190 196 107 l 196 379 q 192 420 196 407 q 178 433 189 433 l 154 433 l 154 0 l 17 0 l 17 971 l 190 971 q 294 932 253 971 q 335 824 335 893 l 335 579 m 178 536 q 192 549 189 536 q 196 588 196 561 l 196 803 q 176 856 196 856 l 154 856 l 154 536 l 178 536 m 118 1024 l 165 1143 l 286 1143 l 201 1024 l 118 1024 z "},"ŕ":{"ha":317,"x_min":14,"x_max":306,"o":"m 161 585 q 142 551 144 585 l 142 0 l 14 0 l 14 688 l 142 688 l 142 658 q 213 692 178 692 l 215 692 q 293 643 276 692 q 306 547 306 606 l 306 404 l 178 404 l 178 544 q 163 585 178 585 l 161 585 m 106 743 l 153 863 l 274 863 l 189 743 l 106 743 z "},"Ŗ":{"ha":360,"x_min":17,"x_max":354,"o":"m 335 579 q 321 513 335 535 q 286 485 307 492 q 321 458 307 479 q 335 392 335 436 l 335 190 q 338 100 335 136 q 344 42 340 64 q 350 11 347 21 q 354 0 353 1 l 215 0 q 200 62 204 17 q 196 190 196 107 l 196 379 q 192 420 196 407 q 178 433 189 433 l 154 433 l 154 0 l 17 0 l 17 971 l 190 971 q 294 932 253 971 q 335 824 335 893 l 335 579 m 178 536 q 192 549 189 536 q 196 588 196 561 l 196 803 q 176 856 196 856 l 154 856 l 154 536 l 178 536 m 250 -193 l 211 -283 l 154 -283 l 175 -193 l 110 -193 l 110 -42 l 250 -42 l 250 -193 z "},"Ř":{"ha":360,"x_min":14,"x_max":354,"o":"m 335 824 q 294 932 335 893 q 190 971 253 971 l 17 971 l 17 0 l 154 0 l 154 433 l 178 433 q 192 420 189 433 q 196 379 196 407 l 196 190 q 200 62 196 107 q 215 0 204 17 l 354 0 q 350 11 353 1 q 344 42 347 21 q 338 100 340 64 q 335 190 335 136 l 335 392 q 321 458 335 436 q 286 485 307 479 q 321 513 307 492 q 335 579 335 535 l 335 824 m 99 1025 l 14 1144 l 135 1144 l 161 1092 l 188 1144 l 308 1144 l 224 1025 l 99 1025 m 154 536 l 154 856 l 176 856 q 196 803 196 856 l 196 588 q 192 549 196 561 q 178 536 189 536 l 154 536 z "},"ŗ":{"ha":317,"x_min":14,"x_max":306,"o":"m 161 585 q 142 551 144 585 l 142 0 l 14 0 l 14 688 l 142 688 l 142 658 q 213 692 178 692 l 215 692 q 293 643 276 692 q 306 547 306 606 l 306 404 l 178 404 l 178 544 q 163 585 178 585 l 161 585 m 242 -193 l 203 -283 l 146 -283 l 167 -193 l 101 -193 l 101 -42 l 242 -42 l 242 -193 z "},"ř":{"ha":317,"x_min":1,"x_max":306,"o":"m 163 585 q 178 544 178 585 l 178 404 l 306 404 l 306 547 q 293 643 306 606 q 215 692 276 692 l 213 692 q 142 658 178 692 l 142 688 l 14 688 l 14 0 l 142 0 l 142 551 q 161 585 144 585 l 163 585 m 86 743 l 1 863 l 122 863 l 149 810 l 175 863 l 296 863 l 211 743 l 86 743 z "},"Ŝ":{"ha":350,"x_min":17,"x_max":333,"o":"m 196 581 l 196 811 q 192 852 196 840 q 176 864 188 864 l 174 864 q 158 852 163 864 q 154 810 154 840 l 154 707 q 167 624 154 660 q 201 556 181 588 q 244 497 221 525 q 287 438 267 469 q 320 370 307 407 q 333 286 333 333 l 333 140 q 322 73 333 101 q 290 26 310 44 q 243 0 269 8 q 189 -8 217 -8 l 165 -8 q 111 0 138 -8 q 64 26 85 8 q 30 73 43 44 q 17 140 17 101 l 17 392 l 142 392 l 142 161 q 149 119 142 132 q 168 107 156 107 l 171 107 q 190 119 183 107 q 196 161 196 132 l 196 265 q 183 349 196 313 q 149 415 169 385 q 106 474 129 446 q 63 533 83 501 q 30 600 43 564 q 17 685 17 636 l 17 831 q 29 898 17 869 q 63 944 42 926 q 109 971 83 963 q 163 979 135 979 l 176 979 q 230 971 204 979 q 276 944 256 963 q 308 898 296 926 q 321 831 321 869 l 321 581 l 196 581 m 236 1144 l 321 1025 l 201 1025 l 175 1078 l 149 1025 l 28 1025 l 113 1144 l 236 1144 z "},"Ś":{"ha":350,"x_min":17,"x_max":333,"o":"m 196 581 l 196 811 q 192 852 196 840 q 176 864 188 864 l 174 864 q 158 852 163 864 q 154 810 154 840 l 154 707 q 167 624 154 660 q 201 556 181 588 q 244 497 221 525 q 287 438 267 469 q 320 370 307 407 q 333 286 333 333 l 333 140 q 322 73 333 101 q 290 26 310 44 q 243 0 269 8 q 189 -8 217 -8 l 165 -8 q 111 0 138 -8 q 64 26 85 8 q 30 73 43 44 q 17 140 17 101 l 17 392 l 142 392 l 142 161 q 149 119 142 132 q 168 107 156 107 l 171 107 q 190 119 183 107 q 196 161 196 132 l 196 265 q 183 349 196 313 q 149 415 169 385 q 106 474 129 446 q 63 533 83 501 q 30 600 43 564 q 17 685 17 636 l 17 831 q 29 898 17 869 q 63 944 42 926 q 109 971 83 963 q 163 979 135 979 l 176 979 q 230 971 204 979 q 276 944 256 963 q 308 898 296 926 q 321 831 321 869 l 321 581 l 196 581 m 131 1025 l 178 1144 l 299 1144 l 214 1025 l 131 1025 z "},"Ş":{"ha":350,"x_min":17,"x_max":333,"o":"m 99 -94 q 127 -106 111 -103 q 157 -108 143 -110 q 179 -99 171 -106 q 185 -81 188 -92 q 167 -64 182 -67 q 136 -72 151 -61 l 110 -61 l 139 -6 q 53 36 90 1 q 17 140 17 71 l 17 392 l 142 392 l 142 161 q 149 119 142 132 q 168 107 156 107 l 171 107 q 190 119 183 107 q 196 161 196 132 l 196 265 q 183 349 196 313 q 149 415 169 385 q 106 474 129 446 q 63 533 83 501 q 30 600 43 564 q 17 685 17 636 l 17 831 q 29 898 17 869 q 63 944 42 926 q 109 971 83 963 q 163 979 135 979 l 176 979 q 230 971 204 979 q 276 944 256 963 q 308 898 296 926 q 321 831 321 869 l 321 581 l 196 581 l 196 811 q 192 852 196 840 q 176 864 188 864 l 174 864 q 158 852 163 864 q 154 810 154 840 l 154 707 q 167 624 154 660 q 201 556 181 588 q 244 497 221 525 q 287 438 267 469 q 320 370 307 407 q 333 286 333 333 l 333 140 q 298 35 333 69 q 214 -6 263 1 l 203 -37 q 254 -36 231 -25 q 278 -78 278 -47 q 254 -141 278 -118 q 199 -172 231 -164 q 135 -174 167 -179 q 86 -156 103 -169 l 99 -94 z "},"Ű":{"ha":350,"x_min":17,"x_max":346,"o":"m 163 -8 q 110 0 136 -8 q 63 26 83 8 q 29 73 42 44 q 17 140 17 101 l 17 971 l 154 971 l 154 161 q 158 119 154 132 q 174 107 163 107 l 178 107 q 192 119 189 107 q 196 161 196 132 l 196 971 l 335 971 l 335 140 q 322 73 335 101 q 290 26 310 44 q 243 0 269 8 q 189 -8 217 -8 l 163 -8 m 36 1022 l 83 1142 l 204 1142 l 119 1022 l 36 1022 m 178 1022 l 225 1142 l 346 1142 l 261 1022 l 178 1022 z "},"ų":{"ha":317,"x_min":11,"x_max":326,"o":"m 156 103 q 175 144 175 103 l 175 688 l 303 688 l 303 0 l 306 0 q 260 -25 278 -7 q 244 -58 243 -43 q 258 -76 246 -74 q 281 -67 269 -78 l 326 -97 q 286 -136 313 -125 q 234 -143 260 -147 q 189 -121 208 -139 q 169 -72 169 -103 q 207 0 169 -32 l 175 0 l 175 29 q 104 -4 139 -4 l 101 -4 q 54 6 72 -4 q 27 35 36 17 q 15 81 18 54 q 11 140 11 107 l 11 688 l 139 688 l 139 143 q 153 103 139 103 l 156 103 z "},"ű":{"ha":317,"x_min":11,"x_max":351,"o":"m 156 103 q 175 136 172 103 l 175 688 l 303 688 l 303 0 l 175 0 l 175 29 q 104 -4 139 -4 l 101 -4 q 54 6 72 -4 q 27 35 36 17 q 15 81 18 54 q 11 140 11 107 l 11 688 l 139 688 l 139 143 q 153 103 139 103 l 156 103 m 42 739 l 89 858 l 210 858 l 125 739 l 42 739 m 183 739 l 231 858 l 351 858 l 267 739 l 183 739 z "},"Ŵ":{"ha":528,"x_min":4,"x_max":524,"o":"m 75 0 l 4 971 l 136 971 l 168 485 l 171 485 l 213 971 l 322 971 l 367 485 l 371 485 l 403 971 l 524 971 l 451 0 l 318 0 l 268 415 l 267 415 l 225 0 l 75 0 m 326 1143 l 411 1024 l 290 1024 l 264 1076 l 238 1024 l 117 1024 l 201 1143 l 326 1143 z "},"ŵ":{"ha":497,"x_min":3,"x_max":494,"o":"m 74 0 l 3 688 l 122 688 l 153 343 l 157 343 l 199 688 l 307 688 l 350 343 l 354 343 l 386 688 l 494 688 l 422 0 l 283 0 l 242 401 l 239 401 l 211 0 l 74 0 m 315 860 l 400 740 l 279 740 l 253 793 l 226 740 l 106 740 l 190 860 l 315 860 z "},"Ŷ":{"ha":357,"x_min":3,"x_max":354,"o":"m 249 347 l 247 0 l 110 0 l 110 347 l 3 971 l 142 971 l 176 660 l 181 660 l 215 971 l 354 971 l 249 347 m 242 1143 l 326 1024 l 206 1024 l 179 1076 l 153 1024 l 32 1024 l 117 1143 l 242 1143 z "},"ŷ":{"ha":294,"x_min":3,"x_max":301,"o":"m 188 688 l 292 688 l 210 -229 l 83 -229 l 111 0 l 3 688 l 118 688 l 153 350 l 157 350 l 188 688 m 217 860 l 301 740 l 182 740 l 156 793 l 129 740 l 8 740 l 93 860 l 217 860 z "},"Ÿ":{"ha":357,"x_min":3,"x_max":354,"o":"m 354 971 l 215 971 l 181 660 l 176 660 l 142 971 l 3 971 l 110 347 l 110 0 l 247 0 l 249 347 l 354 971 m 156 1033 l 64 1033 l 64 1136 l 156 1136 l 156 1033 m 293 1033 l 203 1033 l 203 1136 l 293 1136 l 293 1033 z "},"Ź":{"ha":333,"x_min":8,"x_max":325,"o":"m 325 0 l 8 0 l 8 103 l 172 868 l 36 868 l 36 971 l 311 971 l 311 868 l 146 103 l 325 103 l 325 0 m 124 1025 l 171 1144 l 292 1144 l 207 1025 l 124 1025 z "},"Ž":{"ha":333,"x_min":8,"x_max":325,"o":"m 325 0 l 8 0 l 8 103 l 172 868 l 36 868 l 36 971 l 311 971 l 311 868 l 146 103 l 325 103 l 325 0 m 104 1025 l 19 1144 l 140 1144 l 167 1092 l 193 1144 l 313 1144 l 228 1025 l 104 1025 z "},"Ż":{"ha":333,"x_min":8,"x_max":325,"o":"m 325 0 l 8 0 l 8 103 l 172 868 l 36 868 l 36 971 l 311 971 l 311 868 l 146 103 l 325 103 l 325 0 m 210 1036 l 119 1036 l 119 1138 l 210 1138 l 210 1036 z "},"ź":{"ha":293,"x_min":3,"x_max":289,"o":"m 288 0 l 3 0 l 3 104 l 164 585 l 17 585 l 17 688 l 289 688 l 289 586 l 128 104 l 288 104 l 288 0 m 110 743 l 157 863 l 278 863 l 193 743 l 110 743 z "},"ž":{"ha":293,"x_min":3,"x_max":299,"o":"m 288 0 l 3 0 l 3 104 l 164 585 l 17 585 l 17 688 l 289 688 l 289 586 l 128 104 l 288 104 l 288 0 m 89 743 l 4 863 l 125 863 l 151 810 l 178 863 l 299 863 l 214 743 l 89 743 z "},"ż":{"ha":293,"x_min":3,"x_max":289,"o":"m 288 0 l 3 0 l 3 104 l 164 585 l 17 585 l 17 688 l 289 688 l 289 586 l 128 104 l 288 104 l 288 0 m 194 754 l 104 754 l 104 856 l 194 856 l 194 754 z "},"Š":{"ha":350,"x_min":17,"x_max":333,"o":"m 321 581 l 321 831 q 308 898 321 869 q 276 944 296 926 q 230 971 256 963 q 176 979 204 979 l 163 979 q 109 971 135 979 q 63 944 83 963 q 29 898 42 926 q 17 831 17 869 l 17 685 q 30 600 17 636 q 63 533 43 564 q 106 474 83 501 q 149 415 129 446 q 183 349 169 385 q 196 265 196 313 l 196 161 q 190 119 196 132 q 171 107 183 107 l 168 107 q 149 119 156 107 q 142 161 142 132 l 142 392 l 17 392 l 17 140 q 30 73 17 101 q 64 26 43 44 q 111 0 85 8 q 165 -8 138 -8 l 189 -8 q 243 0 217 -8 q 290 26 269 8 q 322 73 310 44 q 333 140 333 101 l 333 286 q 320 370 333 333 q 287 438 307 407 q 244 497 267 469 q 201 556 221 525 q 167 624 181 588 q 154 707 154 660 l 154 810 q 158 852 154 840 q 174 864 163 864 l 176 864 q 192 852 188 864 q 196 811 196 840 l 196 581 l 321 581 m 111 1025 l 26 1144 l 147 1144 l 174 1092 l 200 1144 l 319 1144 l 235 1025 l 111 1025 z "},"š":{"ha":313,"x_min":4,"x_max":303,"o":"m 290 417 l 290 549 q 253 653 290 614 q 157 692 217 692 l 144 692 q 50 652 86 692 q 14 549 14 613 l 14 482 q 39 391 14 426 q 94 327 64 356 q 149 269 124 299 q 174 197 174 240 l 174 143 q 170 113 174 124 q 153 103 167 103 l 150 103 q 133 113 138 103 q 129 143 129 124 l 129 271 l 14 271 l 14 140 q 50 35 14 74 q 146 -4 86 -4 l 169 -4 q 265 35 228 -4 q 303 140 303 74 l 303 206 q 291 269 303 242 q 261 319 279 297 q 222 359 243 340 q 183 397 201 378 q 153 439 165 417 q 142 490 142 461 l 142 544 q 145 573 142 561 q 156 585 149 585 l 158 585 q 171 573 168 585 q 174 544 174 561 l 174 417 l 290 417 m 89 743 l 4 863 l 125 863 l 151 810 l 178 863 l 297 863 l 213 743 l 89 743 z "},"Ţ":{"ha":339,"x_min":3,"x_max":335,"o":"m 335 856 l 239 856 l 239 0 l 100 0 l 100 856 l 3 856 l 3 971 l 335 971 l 335 856 m 76 -150 l 90 -87 q 119 -99 103 -96 q 149 -101 135 -103 q 170 -93 163 -100 q 176 -74 178 -86 q 158 -58 174 -61 q 126 -65 142 -56 l 100 -56 l 131 0 l 206 0 l 193 -32 q 244 -31 221 -19 q 268 -72 268 -42 q 244 -135 268 -112 q 189 -166 221 -158 q 125 -169 157 -174 q 76 -150 93 -164 z "},"Ť":{"ha":339,"x_min":3,"x_max":335,"o":"m 335 971 l 3 971 l 3 856 l 100 856 l 100 0 l 239 0 l 239 856 l 335 856 l 335 971 m 107 1025 l 22 1144 l 142 1144 l 168 1092 l 194 1144 l 315 1144 l 231 1025 l 107 1025 z "},"ť":{"ha":406,"x_min":11,"x_max":368,"o":"m 171 913 l 171 688 l 221 688 l 221 581 l 171 581 l 171 140 q 184 105 171 117 q 221 101 197 93 l 221 0 q 137 1 171 -8 q 82 30 103 10 q 52 78 61 50 q 43 140 43 107 l 43 581 l 11 581 l 11 688 l 43 688 l 43 900 l 171 913 m 368 761 l 328 671 l 272 671 l 293 761 l 228 761 l 228 913 l 368 913 l 368 761 z "}," ":{"ha":0,"x_min":0,"x_max":0,"o":""},"ŧ":{"ha":231,"x_min":11,"x_max":221,"o":"m 171 913 l 171 688 l 221 688 l 221 581 l 171 581 l 171 507 l 221 507 l 221 400 l 171 400 l 171 140 q 184 105 171 117 q 221 101 197 93 l 221 0 q 137 1 171 -8 q 82 30 103 10 q 52 78 61 50 q 43 140 43 107 l 43 400 l 11 400 l 11 507 l 43 507 l 43 581 l 11 581 l 11 688 l 43 688 l 43 900 l 171 913 z "},"Ŧ":{"ha":339,"x_min":3,"x_max":335,"o":"m 285 435 l 239 435 l 239 0 l 100 0 l 100 435 l 54 435 l 54 528 l 100 528 l 100 856 l 3 856 l 3 971 l 335 971 l 335 856 l 239 856 l 239 528 l 285 528 l 285 435 z "},"ţ":{"ha":231,"x_min":11,"x_max":274,"o":"m 171 913 l 171 688 l 221 688 l 221 581 l 171 581 l 171 140 q 184 105 171 117 q 221 101 197 93 l 221 0 q 211 -1 214 0 l 200 -29 q 250 -28 226 -17 q 274 -69 274 -39 q 250 -133 274 -110 q 194 -163 226 -156 q 131 -166 163 -171 q 83 -147 100 -161 l 96 -86 q 124 -98 108 -94 q 154 -99 140 -101 q 176 -90 168 -97 q 182 -72 185 -83 q 163 -56 179 -58 q 133 -64 147 -54 l 107 -53 l 135 1 q 64 53 85 14 q 43 140 43 92 l 43 581 l 11 581 l 11 688 l 43 688 l 43 900 l 171 913 z "},"Ũ":{"ha":350,"x_min":17,"x_max":335,"o":"m 163 -8 q 110 0 136 -8 q 63 26 83 8 q 29 73 42 44 q 17 140 17 101 l 17 971 l 154 971 l 154 161 q 158 119 154 132 q 174 107 163 107 l 178 107 q 192 119 189 107 q 196 161 196 132 l 196 971 l 335 971 l 335 140 q 322 73 335 101 q 290 26 310 44 q 243 0 269 8 q 189 -8 217 -8 l 163 -8 m 32 1076 q 67 1122 47 1108 q 104 1136 88 1136 q 151 1124 131 1136 q 197 1113 172 1113 q 215 1117 207 1113 q 233 1132 222 1121 l 294 1093 q 256 1047 275 1058 q 217 1035 236 1035 q 169 1046 189 1035 q 129 1057 150 1057 q 110 1053 119 1057 q 88 1039 100 1050 l 32 1076 z "},"Ů":{"ha":350,"x_min":17,"x_max":335,"o":"m 163 -8 q 110 0 136 -8 q 63 26 83 8 q 29 73 42 44 q 17 140 17 101 l 17 971 l 154 971 l 154 161 q 158 119 154 132 q 174 107 163 107 l 178 107 q 192 119 189 107 q 196 161 196 132 l 196 971 l 335 971 l 335 140 q 322 73 335 101 q 290 26 310 44 q 243 0 269 8 q 189 -8 217 -8 l 163 -8 m 163 1007 q 127 1015 144 1007 q 96 1035 110 1022 q 74 1065 82 1049 q 65 1101 65 1082 q 94 1172 65 1142 q 161 1201 124 1201 q 199 1193 181 1201 q 231 1172 217 1185 q 253 1140 244 1158 q 261 1101 261 1122 q 232 1035 261 1064 q 163 1007 203 1007 m 163 1131 q 143 1122 151 1131 q 135 1103 135 1114 q 143 1084 135 1093 q 163 1075 151 1075 q 182 1084 174 1075 q 190 1103 190 1093 q 182 1122 190 1114 q 163 1131 174 1131 z "},"Ŭ":{"ha":350,"x_min":17,"x_max":335,"o":"m 163 -8 q 110 0 136 -8 q 63 26 83 8 q 29 73 42 44 q 17 140 17 101 l 17 971 l 154 971 l 154 161 q 158 119 154 132 q 174 107 163 107 l 178 107 q 192 119 189 107 q 196 161 196 132 l 196 971 l 335 971 l 335 140 q 322 73 335 101 q 290 26 310 44 q 243 0 269 8 q 189 -8 217 -8 l 163 -8 m 136 1139 q 144 1119 136 1128 q 164 1110 151 1110 q 183 1119 175 1110 q 190 1139 190 1128 l 272 1139 q 263 1098 272 1118 q 240 1063 254 1078 q 205 1040 225 1049 q 163 1031 185 1031 q 122 1040 142 1031 q 88 1063 103 1049 q 65 1097 74 1078 q 57 1139 57 1117 l 136 1139 z "},"Ū":{"ha":350,"x_min":17,"x_max":335,"o":"m 163 -8 q 110 0 136 -8 q 63 26 83 8 q 29 73 42 44 q 17 140 17 101 l 17 971 l 154 971 l 154 161 q 158 119 154 132 q 174 107 163 107 l 178 107 q 192 119 189 107 q 196 161 196 132 l 196 971 l 335 971 l 335 140 q 322 73 335 101 q 290 26 310 44 q 243 0 269 8 q 189 -8 217 -8 l 163 -8 m 267 1038 l 58 1038 l 58 1132 l 267 1132 l 267 1038 z "},"ũ":{"ha":317,"x_min":11,"x_max":303,"o":"m 153 103 q 139 143 139 103 l 139 688 l 11 688 l 11 140 q 15 81 11 107 q 27 35 18 54 q 54 6 36 17 q 101 -4 72 -4 l 104 -4 q 175 29 139 -4 l 175 0 l 303 0 l 303 688 l 175 688 l 175 136 q 156 103 172 103 l 153 103 m 26 793 q 62 839 42 825 q 99 853 82 853 q 146 841 125 853 q 193 829 167 829 q 209 833 201 829 q 228 849 217 838 l 289 810 q 250 763 269 775 q 211 751 231 751 q 165 763 185 751 q 124 774 144 774 q 104 770 114 774 q 82 756 94 767 l 26 793 z "},"ů":{"ha":317,"x_min":11,"x_max":303,"o":"m 153 103 q 139 143 139 103 l 139 688 l 11 688 l 11 140 q 15 81 11 107 q 27 35 18 54 q 54 6 36 17 q 101 -4 72 -4 l 104 -4 q 175 29 139 -4 l 175 0 l 303 0 l 303 688 l 175 688 l 175 136 q 156 103 172 103 l 153 103 m 157 724 q 122 731 139 724 q 90 752 104 739 q 68 782 76 765 q 60 818 60 799 q 89 888 60 858 q 156 918 118 918 q 226 888 196 918 q 256 818 256 858 q 227 752 256 781 q 157 724 199 724 m 157 847 q 138 839 146 847 q 129 819 129 831 q 138 801 129 810 q 157 792 146 792 q 176 801 168 792 q 185 819 185 810 q 176 839 185 831 q 157 847 168 847 z "},"ŭ":{"ha":317,"x_min":11,"x_max":303,"o":"m 153 103 q 139 143 139 103 l 139 688 l 11 688 l 11 140 q 15 81 11 107 q 27 35 18 54 q 54 6 36 17 q 101 -4 72 -4 l 104 -4 q 175 29 139 -4 l 175 0 l 303 0 l 303 688 l 175 688 l 175 144 q 156 103 175 103 l 153 103 m 131 856 q 139 835 131 844 q 158 826 147 826 q 178 835 169 826 q 186 856 186 844 l 267 856 q 258 815 267 835 q 234 780 249 794 q 199 756 219 765 q 157 747 179 747 q 117 756 136 747 q 84 780 99 765 q 60 814 69 794 q 51 856 51 833 l 131 856 z "},"ū":{"ha":317,"x_min":11,"x_max":303,"o":"m 156 103 q 175 136 172 103 l 175 688 l 303 688 l 303 0 l 175 0 l 175 29 q 104 -4 139 -4 l 101 -4 q 54 6 72 -4 q 27 35 36 17 q 15 81 18 54 q 11 140 11 107 l 11 688 l 139 688 l 139 143 q 153 103 139 103 l 156 103 m 263 754 l 53 754 l 53 849 l 263 849 l 263 754 z "},"ĳ":{"ha":360,"x_min":17,"x_max":343,"o":"m 144 688 l 144 0 l 17 0 l 17 688 l 144 688 m 144 871 l 144 732 l 17 732 l 17 871 l 144 871 m 343 872 l 343 732 l 215 732 l 215 872 l 343 872 m 343 688 l 343 -85 q 303 -190 343 -150 q 164 -229 263 -229 l 164 -122 q 215 -85 215 -122 l 215 688 l 343 688 z "},"Ń":{"ha":397,"x_min":15,"x_max":382,"o":"m 229 0 l 133 539 l 131 539 l 131 0 l 15 0 l 15 971 l 169 971 l 256 449 l 257 449 l 257 971 l 382 971 l 382 0 l 229 0 m 157 1024 l 204 1143 l 325 1143 l 240 1024 l 157 1024 z "},"Ň":{"ha":397,"x_min":15,"x_max":382,"o":"m 229 0 l 133 539 l 131 539 l 131 0 l 15 0 l 15 971 l 169 971 l 256 449 l 257 449 l 257 971 l 382 971 l 382 0 l 229 0 m 136 1025 l 51 1144 l 172 1144 l 199 1092 l 225 1144 l 346 1144 l 261 1025 l 136 1025 z "},"ņ":{"ha":317,"x_min":14,"x_max":306,"o":"m 161 585 q 142 551 144 585 l 142 0 l 14 0 l 14 688 l 142 688 l 142 658 q 213 692 178 692 l 215 692 q 263 681 244 692 q 290 652 281 671 q 302 607 299 633 q 306 547 306 581 l 306 0 l 178 0 l 178 544 q 163 585 178 585 l 161 585 m 231 -178 l 192 -268 l 135 -268 l 156 -178 l 90 -178 l 90 -26 l 231 -26 l 231 -178 z "},"ń":{"ha":317,"x_min":14,"x_max":306,"o":"m 161 585 q 142 551 144 585 l 142 0 l 14 0 l 14 688 l 142 688 l 142 658 q 213 692 178 692 l 215 692 q 263 681 244 692 q 290 652 281 671 q 302 607 299 633 q 306 547 306 581 l 306 0 l 178 0 l 178 544 q 163 585 178 585 l 161 585 m 94 743 l 142 863 l 263 863 l 178 743 l 94 743 z "},"ň":{"ha":317,"x_min":13,"x_max":307,"o":"m 163 585 q 178 544 178 585 l 178 0 l 306 0 l 306 547 q 302 607 306 581 q 290 652 299 633 q 263 681 281 671 q 215 692 244 692 l 213 692 q 142 658 178 692 l 142 688 l 14 688 l 14 0 l 142 0 l 142 551 q 161 585 144 585 l 163 585 m 97 743 l 13 863 l 133 863 l 160 810 l 186 863 l 307 863 l 222 743 l 97 743 z "},"Ņ":{"ha":397,"x_min":15,"x_max":382,"o":"m 229 0 l 133 539 l 131 539 l 131 0 l 15 0 l 15 971 l 169 971 l 256 449 l 257 449 l 257 971 l 382 971 l 382 0 l 229 0 m 244 -189 l 206 -279 l 149 -279 l 169 -189 l 104 -189 l 104 -37 l 244 -37 l 244 -189 z "},"Ŋ":{"ha":397,"x_min":17,"x_max":381,"o":"m 125 550 l 125 0 l 17 0 l 17 971 l 169 971 l 261 438 l 263 438 l 263 971 l 381 971 l 381 -85 q 329 -190 381 -151 q 178 -229 278 -229 l 178 -122 q 215 -113 201 -122 q 228 -85 228 -104 l 228 7 l 128 550 l 125 550 z "},"ŋ":{"ha":317,"x_min":14,"x_max":306,"o":"m 161 585 q 142 551 144 585 l 142 0 l 14 0 l 14 688 l 142 688 l 142 658 q 213 692 178 692 l 215 692 q 263 681 244 692 q 290 652 281 671 q 302 607 299 633 q 306 547 306 581 l 306 -85 q 265 -190 306 -150 q 126 -229 225 -229 l 126 -122 q 178 -85 178 -122 l 178 544 q 163 585 178 585 l 161 585 z "},"Ŏ":{"ha":350,"x_min":17,"x_max":333,"o":"m 161 -8 q 108 0 133 -8 q 62 26 82 8 q 29 73 42 44 q 17 140 17 101 l 17 831 q 29 898 17 869 q 62 944 42 926 q 108 971 82 963 q 161 979 133 979 l 189 979 q 242 971 215 979 q 288 944 268 963 q 321 898 308 926 q 333 831 333 869 l 333 140 q 321 73 333 101 q 288 26 308 44 q 242 0 268 8 q 189 -8 215 -8 l 161 -8 m 174 864 q 154 810 154 864 l 154 161 q 158 119 154 132 q 174 107 163 107 l 176 107 q 192 119 188 107 q 196 161 196 132 l 196 810 q 176 864 196 864 l 174 864 m 149 1139 q 157 1119 149 1128 q 176 1110 165 1110 q 196 1119 188 1110 q 204 1139 204 1128 l 285 1139 q 276 1098 285 1118 q 252 1063 267 1078 q 217 1040 238 1049 q 175 1031 197 1031 q 135 1040 154 1031 q 102 1063 117 1049 q 78 1097 88 1078 q 69 1139 69 1117 l 149 1139 z "},"Ō":{"ha":350,"x_min":17,"x_max":333,"o":"m 161 -8 q 108 0 133 -8 q 62 26 82 8 q 29 73 42 44 q 17 140 17 101 l 17 831 q 29 898 17 869 q 62 944 42 926 q 108 971 82 963 q 161 979 133 979 l 189 979 q 242 971 215 979 q 288 944 268 963 q 321 898 308 926 q 333 831 333 869 l 333 140 q 321 73 333 101 q 288 26 308 44 q 242 0 268 8 q 189 -8 215 -8 l 161 -8 m 174 864 q 154 810 154 864 l 154 161 q 158 119 154 132 q 174 107 163 107 l 176 107 q 192 119 188 107 q 196 161 196 132 l 196 810 q 176 864 196 864 l 174 864 m 281 1038 l 71 1038 l 71 1132 l 281 1132 l 281 1038 z "},"ŏ":{"ha":313,"x_min":14,"x_max":303,"o":"m 143 -4 q 49 35 85 -4 q 14 140 14 74 l 14 547 q 49 653 14 614 q 143 692 85 692 l 169 692 q 265 653 228 692 q 303 547 303 614 l 303 140 q 265 35 303 74 q 169 -4 228 -4 l 143 -4 m 157 585 q 142 544 142 585 l 142 143 q 157 103 142 103 l 160 103 q 174 143 174 103 l 174 544 q 160 585 174 585 l 157 585 m 131 858 q 139 838 131 847 q 158 829 147 829 q 178 838 169 829 q 186 858 186 847 l 267 858 q 258 817 267 836 q 234 783 249 797 q 199 759 219 768 q 157 750 179 750 q 117 759 136 750 q 84 783 99 768 q 60 817 69 797 q 51 858 51 836 l 131 858 z "},"ō":{"ha":313,"x_min":14,"x_max":303,"o":"m 143 -4 q 49 35 85 -4 q 14 140 14 74 l 14 547 q 49 653 14 614 q 143 692 85 692 l 169 692 q 265 653 228 692 q 303 547 303 614 l 303 140 q 265 35 303 74 q 169 -4 228 -4 l 143 -4 m 157 585 q 142 544 142 585 l 142 143 q 157 103 142 103 l 160 103 q 174 143 174 103 l 174 544 q 160 585 174 585 l 157 585 m 263 757 l 53 757 l 53 851 l 263 851 l 263 757 z "},"ſ":{"ha":263,"x_min":14,"x_max":260,"o":"m 14 688 l 44 688 l 44 836 q 58 899 44 869 q 97 949 71 929 q 164 977 124 969 q 260 972 204 985 l 260 871 q 235 870 250 871 q 207 865 221 869 q 183 852 193 861 q 174 826 174 843 l 174 0 l 44 0 l 44 581 l 14 581 l 14 688 z "},"ŉ":{"ha":469,"x_min":15,"x_max":458,"o":"m 315 585 q 329 544 329 585 l 329 0 l 458 0 l 458 547 q 442 652 458 613 q 368 692 425 692 l 365 692 q 294 658 331 692 l 294 688 l 167 688 l 167 0 l 294 0 l 294 551 q 314 585 297 585 l 315 585 m 157 790 l 117 701 l 60 701 l 81 790 l 15 790 l 15 943 l 157 943 l 157 790 z "},"Ĳ":{"ha":526,"x_min":17,"x_max":508,"o":"m 154 971 l 154 0 l 17 0 l 17 971 l 154 971 m 336 -8 q 283 0 310 -8 q 236 26 257 8 q 203 73 215 44 q 190 140 190 101 l 190 390 l 329 390 l 329 161 q 333 119 329 132 q 347 107 336 107 l 351 107 q 367 119 363 107 q 371 161 371 132 l 371 971 l 508 971 l 508 140 q 496 73 508 101 q 463 26 483 44 q 417 0 443 8 q 363 -8 390 -8 l 336 -8 z "},"ĸ":{"ha":336,"x_min":17,"x_max":333,"o":"m 221 358 l 333 0 l 204 0 l 143 210 l 143 0 l 17 0 l 17 688 l 143 688 l 143 488 l 210 688 l 333 688 l 221 358 z "},"Ð":{"ha":350,"x_min":-6,"x_max":335,"o":"m 17 0 l 17 439 l -6 439 l -6 533 l 17 533 l 17 971 l 189 971 q 242 963 215 971 q 289 936 268 954 q 322 890 310 918 q 335 824 335 863 l 335 147 q 322 81 335 108 q 289 35 310 53 q 242 8 268 17 q 189 0 215 0 l 17 0 m 154 856 l 154 533 l 172 533 l 172 439 l 154 439 l 154 115 l 178 115 q 192 128 189 115 q 196 169 196 140 l 196 801 q 178 856 196 856 l 154 856 z "},"Ľ":{"ha":363,"x_min":17,"x_max":343,"o":"m 17 971 l 17 0 l 267 0 l 267 103 l 154 103 l 154 971 l 17 971 m 343 821 l 304 731 l 247 731 l 268 821 l 203 821 l 203 972 l 343 972 l 343 821 z "},"Ų":{"ha":350,"x_min":17,"x_max":335,"o":"m 258 -106 q 218 -144 244 -133 q 166 -151 192 -156 q 121 -129 140 -147 q 101 -81 101 -111 q 140 -7 101 -39 q 54 35 92 0 q 17 140 17 69 l 17 971 l 154 971 l 154 161 q 158 119 154 132 q 174 107 163 107 l 178 107 q 192 119 189 107 q 196 161 196 132 l 196 971 l 335 971 l 335 140 q 306 44 335 79 q 238 -1 278 10 q 192 -32 210 -12 q 176 -67 175 -51 q 190 -84 178 -82 q 213 -75 201 -86 l 258 -106 z "},"ð":{"ha":364,"x_min":14,"x_max":356,"o":"m 303 0 l 199 0 l 186 33 q 111 -4 149 -4 l 107 -4 q 32 35 50 -4 q 14 140 14 75 l 14 547 q 17 607 14 581 q 30 652 21 633 q 56 681 39 671 q 103 692 74 692 l 107 692 q 174 661 140 692 l 174 807 l 124 807 l 124 900 l 174 900 l 174 971 l 303 971 l 303 900 l 356 900 l 356 807 l 303 807 l 303 0 m 157 585 q 142 544 142 585 l 142 143 q 156 103 142 103 l 158 103 q 174 144 174 103 l 174 543 q 158 585 174 585 l 157 585 z "},"í":{"ha":156,"x_min":17,"x_max":206,"o":"m 144 688 l 144 0 l 17 0 l 17 688 l 144 688 m 38 740 l 85 860 l 206 860 l 121 740 l 38 740 z "},"ĺ":{"ha":156,"x_min":17,"x_max":208,"o":"m 17 971 l 144 971 l 144 0 l 17 0 l 17 971 m 40 1024 l 88 1143 l 208 1143 l 124 1024 l 40 1024 z "},"ś":{"ha":313,"x_min":14,"x_max":303,"o":"m 174 417 l 174 544 q 171 573 174 561 q 158 585 168 585 l 156 585 q 145 573 149 585 q 142 544 142 561 l 142 490 q 153 439 142 461 q 183 397 165 417 q 222 359 201 378 q 261 319 243 340 q 291 269 279 297 q 303 206 303 242 l 303 140 q 265 35 303 74 q 169 -4 228 -4 l 146 -4 q 50 35 86 -4 q 14 140 14 74 l 14 271 l 129 271 l 129 143 q 133 113 129 124 q 150 103 138 103 l 153 103 q 170 113 167 103 q 174 143 174 124 l 174 197 q 149 269 174 240 q 94 327 124 299 q 39 391 64 356 q 14 482 14 426 l 14 549 q 50 652 14 613 q 144 692 86 692 l 157 692 q 253 653 217 692 q 290 549 290 614 l 290 417 l 174 417 m 108 743 l 156 863 l 276 863 l 192 743 l 108 743 z "},"ŝ":{"ha":313,"x_min":6,"x_max":303,"o":"m 174 417 l 174 544 q 171 573 174 561 q 158 585 168 585 l 156 585 q 145 573 149 585 q 142 544 142 561 l 142 490 q 153 439 142 461 q 183 397 165 417 q 222 359 201 378 q 261 319 243 340 q 291 269 279 297 q 303 206 303 242 l 303 140 q 265 35 303 74 q 169 -4 228 -4 l 146 -4 q 50 35 86 -4 q 14 140 14 74 l 14 271 l 129 271 l 129 143 q 133 113 129 124 q 150 103 138 103 l 153 103 q 170 113 167 103 q 174 143 174 124 l 174 197 q 149 269 174 240 q 94 327 124 299 q 39 391 64 356 q 14 482 14 426 l 14 549 q 50 652 14 613 q 144 692 86 692 l 157 692 q 253 653 217 692 q 290 549 290 614 l 290 417 l 174 417 m 214 863 l 299 743 l 179 743 l 153 796 l 126 743 l 6 743 l 90 863 l 214 863 z "},"ş":{"ha":313,"x_min":14,"x_max":303,"o":"m 79 -92 q 108 -103 92 -100 q 138 -106 125 -107 q 160 -97 151 -104 q 167 -78 168 -90 q 148 -62 164 -65 q 117 -69 132 -60 l 90 -60 l 121 -1 q 43 44 72 6 q 14 140 14 82 l 14 271 l 129 271 l 129 143 q 133 113 129 124 q 150 103 138 103 l 153 103 q 170 113 167 103 q 174 143 174 124 l 174 197 q 149 269 174 240 q 94 327 124 299 q 39 391 64 356 q 14 482 14 426 l 14 549 q 50 652 14 613 q 144 692 86 692 l 157 692 q 253 653 217 692 q 290 549 290 614 l 290 417 l 174 417 l 174 544 q 171 573 174 561 q 158 585 168 585 l 156 585 q 145 573 149 585 q 142 544 142 561 l 142 490 q 153 439 142 461 q 183 397 165 417 q 222 359 201 378 q 261 319 243 340 q 291 269 279 297 q 303 206 303 242 l 303 140 q 274 44 303 82 q 197 -1 244 7 l 183 -36 q 235 -35 211 -24 q 258 -76 258 -46 q 235 -140 258 -117 q 179 -170 211 -162 q 115 -173 147 -178 q 67 -154 83 -168 l 79 -92 z "},"−":{"ha":351,"x_min":17,"x_max":335,"o":"m 335 532 l 335 439 l 17 439 l 17 532 l 335 532 z "},"ﬂ":{"ha":418,"x_min":14,"x_max":410,"o":"m 44 0 l 44 581 l 14 581 l 14 688 l 44 688 l 44 836 q 58 899 44 869 q 97 949 71 929 q 164 977 124 969 q 260 972 204 985 l 260 871 q 235 870 250 871 q 207 865 221 869 q 183 852 193 861 q 174 826 174 843 l 174 688 l 260 688 l 260 581 l 174 581 l 174 0 l 44 0 m 281 0 l 410 0 l 410 971 l 281 971 l 281 0 z "},"J":{"ha":350,"x_min":17,"x_max":333,"o":"m 161 -8 q 109 0 135 -8 q 63 26 83 8 q 29 73 42 44 q 17 140 17 101 l 17 390 l 154 390 l 154 161 q 158 119 154 132 q 174 107 163 107 l 176 107 q 192 119 188 107 q 196 161 196 132 l 196 971 l 333 971 l 333 140 q 321 73 333 101 q 288 26 308 44 q 242 0 268 8 q 189 -8 217 -8 l 161 -8 z "},"H":{"ha":350,"x_min":17,"x_max":333,"o":"m 333 971 l 333 0 l 196 0 l 196 433 l 154 433 l 154 0 l 17 0 l 17 971 l 154 971 l 154 536 l 196 536 l 196 971 l 333 971 z "},"I":{"ha":171,"x_min":17,"x_max":154,"o":"m 154 971 l 154 0 l 17 0 l 17 971 l 154 971 z "}}}
